<svg width="633" height="545" viewBox="0 0 633 545" fill="none" xmlns="http://www.w3.org/2000/svg">
<g clip-path="url(#clip0)">
<path d="M345.516 151.777C377.706 151.777 403.801 125.743 403.801 93.6284C403.801 61.5139 377.706 35.48 345.516 35.48C313.326 35.48 287.23 61.5139 287.23 93.6284C287.23 125.743 313.326 151.777 345.516 151.777Z" fill="#FFD5A7"/>
<path d="M302.013 122.703C302.013 122.703 312.994 205.29 296.1 214.56C279.206 223.83 396.621 224.673 396.621 224.673C396.621 224.673 370.435 153.041 382.261 131.13L302.013 122.703Z" fill="#FFD5A7"/>
<path d="M482.359 225.091L472.594 269.451L451.946 363.305L451.328 368.445L444.203 427.949L439.463 467.478L436.284 494.031C416.961 503.939 402.955 510.779 402.955 510.779C402.955 510.779 401.75 504.754 399.809 497.044C386.247 501.1 361.153 507.83 339.887 509.174C347.631 517.785 351.19 525.875 346.363 531.845C331.795 549.842 271.651 512.139 250.616 498.08C250.126 501.446 249.94 504.849 250.061 508.249L233.963 495.897L235.556 467.478L238.243 419.393L241.619 359.09C240.555 356.508 239.662 353.859 238.948 351.159C234.018 333.668 228.034 298.741 223.445 269.451C219.751 245.879 216.977 225.96 216.391 221.722C216.311 221.169 216.272 220.884 216.272 220.884L305.385 181.6C311.718 196.252 341.29 200.657 341.29 200.657C365.79 198.972 384.995 186.083 384.995 186.083L482.359 225.091Z" fill="#909090"/>
<path d="M409.716 493.928C409.716 493.928 405.944 495.217 399.809 497.044C386.247 501.1 361.153 507.83 339.887 509.174C321.578 510.344 306.106 507.529 303.277 495.613C302.064 490.489 303.784 486.274 307.533 482.811C318.725 472.46 347.956 468.751 371.14 467.478C377.687 467.122 383.743 466.956 388.784 466.893C397.344 466.782 402.955 466.956 402.955 466.956L403.09 467.478L409.716 493.928Z" fill="#A0616A"/>
<path d="M297.028 38.6254L286.13 34.2727C286.13 34.2727 308.916 9.24501 340.62 11.4214L331.703 1.62787C331.703 1.62787 353.499 -7.07734 373.313 15.774C383.729 27.7864 395.781 41.9064 403.294 57.8124H414.965L410.094 68.5126L427.142 79.2128L409.643 77.2908C410.686 83.1504 410.846 89.1324 410.118 95.0391C409.368 100.948 406.345 106.334 401.689 110.062C401.689 110.062 388.174 82.1518 388.174 77.7991V88.6807C388.174 88.6807 377.276 78.8873 377.276 72.3584L371.332 79.9755L368.36 68.0056L331.703 79.9755L337.647 70.1821L314.861 73.4466L323.777 61.4767C323.777 61.4767 298.019 75.6228 297.028 87.5927C296.037 99.5624 288.498 110.904 288.498 110.904C288.498 110.904 268.297 54.9477 297.028 38.6254Z" fill="#493131"/>
<path d="M545.712 429.032C539.775 435.453 525.065 445.124 507.231 455.593C500.597 459.484 493.535 463.493 486.33 467.478C469.138 476.991 451.138 486.416 436.284 494.031C416.961 503.939 402.955 510.779 402.955 510.779C402.955 510.779 401.75 504.754 399.808 497.044C397.209 486.725 393.293 473.385 389.211 467.478C389.069 467.272 388.926 467.083 388.783 466.893C387.594 465.335 386.398 464.426 385.217 464.426L444.203 427.949L469.693 412.181L451.328 368.445L428.295 313.583L442.197 269.451L456.171 225.091H482.359C482.359 225.091 491.03 243.974 502.119 270.306C503.775 274.243 505.487 278.347 507.231 282.586C530.042 337.938 558.481 415.233 545.712 429.032Z" fill="#909090"/>
<path d="M346.363 531.845C331.795 549.842 271.652 512.139 250.616 498.08C246.034 495.02 243.308 493.082 243.308 493.082L262.552 467.478L268.648 459.373C268.648 459.373 274.101 462.259 282.162 466.956C282.455 467.13 282.748 467.304 283.049 467.478C290 471.55 298.727 476.872 307.533 482.811C319.684 491.011 331.969 500.365 339.887 509.174C347.631 517.785 351.19 525.875 346.363 531.845Z" fill="#A0616A"/>
<path d="M282.162 466.956C280.01 466.948 277.863 467.123 275.741 467.478C257.519 470.602 252.145 487.057 250.616 498.08C250.126 501.446 249.94 504.85 250.061 508.249L233.963 495.897L228.098 491.398C213.981 486.488 201.402 477.766 190.496 467.478C181.035 458.396 172.548 448.354 165.172 437.517C157.826 426.835 151.277 415.629 145.579 403.989C143.989 400.741 143.134 397.184 143.075 393.569C143.016 389.955 143.755 386.372 145.238 383.074L165.172 338.753L194.309 273.975C194.523 272.433 194.758 270.925 195.014 269.451C200.792 236.398 216.272 221.722 216.272 221.722H228.098L236.008 269.451L245.836 328.75L238.948 351.159L223.033 402.914L238.243 419.393L282.162 466.956Z" fill="#909090"/>
<path d="M295.546 328.797L305.655 340.564C309.411 339.849 313.334 339.01 317.374 338.067L314.47 328.797L321.57 337.06C364.369 326.559 417.418 306.141 417.418 306.141C417.418 306.141 360.146 310.331 317.384 301.01C298.463 296.887 278.997 306.244 271.233 323.944C266.72 334.232 267.429 343.145 283.434 343.145C288.842 343.053 294.235 342.547 299.566 341.632L295.546 328.797Z" fill="#0000FF"/>
<path d="M526.016 522.198V526.997C526.019 528.315 525.774 529.621 525.295 530.848C525.082 531.395 524.825 531.924 524.526 532.43C523.581 534.012 522.241 535.322 520.636 536.231C519.031 537.14 517.217 537.618 515.371 537.617H161.431C159.586 537.618 157.771 537.14 156.166 536.231C154.562 535.322 153.221 534.012 152.277 532.43C151.978 531.924 151.721 531.395 151.508 530.848C151.028 529.621 150.784 528.315 150.786 526.997V522.198C150.786 520.803 151.061 519.422 151.596 518.133C152.131 516.845 152.915 515.674 153.903 514.688C154.892 513.701 156.065 512.919 157.357 512.385C158.649 511.852 160.033 511.578 161.431 511.578H181.833V509.34C181.833 509.282 181.844 509.224 181.867 509.17C181.889 509.117 181.922 509.068 181.963 509.027C182.004 508.986 182.053 508.953 182.107 508.931C182.161 508.909 182.218 508.897 182.277 508.897H192.922C192.98 508.897 193.038 508.909 193.092 508.931C193.145 508.953 193.194 508.986 193.236 509.027C193.277 509.068 193.31 509.117 193.332 509.17C193.354 509.224 193.366 509.282 193.365 509.34V511.578H200.015V509.34C200.015 509.282 200.027 509.224 200.049 509.17C200.071 509.117 200.104 509.068 200.145 509.027C200.186 508.986 200.235 508.953 200.289 508.931C200.343 508.909 200.401 508.897 200.459 508.897H211.104C211.162 508.897 211.22 508.909 211.274 508.931C211.328 508.953 211.377 508.986 211.418 509.027C211.459 509.068 211.492 509.117 211.514 509.17C211.537 509.224 211.548 509.282 211.548 509.34V511.578H218.206V509.34C218.206 509.282 218.217 509.224 218.239 509.17C218.262 509.117 218.294 509.068 218.336 509.027C218.377 508.986 218.426 508.953 218.48 508.931C218.534 508.909 218.591 508.897 218.65 508.897H229.294C229.353 508.897 229.41 508.909 229.464 508.931C229.518 508.953 229.567 508.986 229.609 509.027C229.65 509.068 229.682 509.117 229.705 509.17C229.727 509.224 229.738 509.282 229.738 509.34V511.578H236.388V509.34C236.388 509.282 236.4 509.224 236.422 509.17C236.444 509.117 236.477 509.068 236.518 509.027C236.559 508.986 236.608 508.953 236.662 508.931C236.716 508.909 236.774 508.897 236.832 508.897H247.477C247.535 508.897 247.593 508.909 247.647 508.931C247.701 508.953 247.75 508.986 247.791 509.027C247.832 509.068 247.865 509.117 247.887 509.17C247.909 509.224 247.921 509.282 247.921 509.34V511.578H254.571V509.34C254.571 509.282 254.582 509.224 254.604 509.17C254.627 509.117 254.659 509.068 254.701 509.027C254.742 508.986 254.791 508.953 254.845 508.931C254.899 508.909 254.956 508.897 255.015 508.897H265.659C265.718 508.897 265.775 508.909 265.829 508.931C265.883 508.953 265.932 508.986 265.973 509.027C266.015 509.068 266.047 509.117 266.07 509.17C266.092 509.224 266.103 509.282 266.103 509.34V511.578H272.761V509.34C272.761 509.282 272.772 509.224 272.795 509.17C272.817 509.117 272.85 509.068 272.891 509.027C272.932 508.986 272.981 508.953 273.035 508.931C273.089 508.909 273.147 508.897 273.205 508.897H283.85C283.908 508.897 283.966 508.909 284.02 508.931C284.074 508.953 284.123 508.986 284.164 509.027C284.205 509.068 284.238 509.117 284.26 509.17C284.282 509.224 284.294 509.282 284.294 509.34V511.578H290.944V509.34C290.944 509.282 290.955 509.224 290.977 509.17C291 509.117 291.032 509.068 291.073 509.027C291.115 508.986 291.164 508.953 291.218 508.931C291.271 508.909 291.329 508.897 291.388 508.897H374.77C374.828 508.897 374.886 508.909 374.94 508.931C374.994 508.953 375.043 508.986 375.084 509.027C375.125 509.068 375.158 509.117 375.18 509.17C375.203 509.224 375.214 509.282 375.214 509.34V511.578H381.872V509.34C381.872 509.282 381.883 509.224 381.905 509.17C381.928 509.117 381.96 509.068 382.002 509.027C382.043 508.986 382.092 508.953 382.146 508.931C382.2 508.909 382.257 508.897 382.316 508.897H392.961C393.078 508.898 393.19 508.945 393.273 509.028C393.356 509.111 393.403 509.223 393.404 509.34V511.578H400.054V509.34C400.054 509.282 400.066 509.224 400.088 509.17C400.11 509.117 400.143 509.068 400.184 509.027C400.225 508.986 400.274 508.953 400.328 508.931C400.382 508.909 400.44 508.897 400.498 508.897H411.143C411.201 508.897 411.259 508.909 411.313 508.931C411.367 508.953 411.416 508.986 411.457 509.027C411.498 509.068 411.531 509.117 411.553 509.17C411.576 509.224 411.587 509.282 411.587 509.34V511.578H418.237V509.34C418.237 509.282 418.248 509.224 418.271 509.17C418.293 509.117 418.326 509.068 418.367 509.027C418.408 508.986 418.457 508.953 418.511 508.931C418.565 508.909 418.622 508.897 418.681 508.897H429.326C429.384 508.897 429.442 508.909 429.496 508.931C429.549 508.953 429.598 508.986 429.64 509.027C429.681 509.068 429.714 509.117 429.736 509.17C429.758 509.224 429.77 509.282 429.769 509.34V511.578H436.427V509.34C436.427 509.282 436.439 509.224 436.461 509.17C436.483 509.117 436.516 509.068 436.557 509.027C436.598 508.986 436.647 508.953 436.701 508.931C436.755 508.909 436.813 508.897 436.871 508.897H447.516C447.633 508.899 447.744 508.946 447.825 509.029C447.907 509.112 447.953 509.224 447.952 509.34V511.578H454.61V509.34C454.61 509.282 454.621 509.224 454.643 509.17C454.666 509.117 454.698 509.068 454.74 509.027C454.781 508.986 454.83 508.953 454.884 508.931C454.938 508.909 454.995 508.897 455.054 508.897H465.698C465.757 508.897 465.815 508.909 465.868 508.931C465.922 508.953 465.971 508.986 466.013 509.027C466.054 509.068 466.086 509.117 466.109 509.17C466.131 509.224 466.142 509.282 466.142 509.34V511.578H472.792V509.34C472.792 509.282 472.804 509.224 472.826 509.17C472.848 509.117 472.881 509.068 472.922 509.027C472.963 508.986 473.012 508.953 473.066 508.931C473.12 508.909 473.178 508.897 473.236 508.897H483.881C483.939 508.897 483.997 508.909 484.051 508.931C484.105 508.953 484.154 508.986 484.195 509.027C484.236 509.068 484.269 509.117 484.291 509.17C484.313 509.224 484.325 509.282 484.325 509.34V511.578H515.371C516.769 511.578 518.154 511.852 519.445 512.385C520.737 512.919 521.911 513.701 522.899 514.688C523.888 515.674 524.672 516.845 525.207 518.133C525.741 519.422 526.016 520.803 526.016 522.198Z" fill="#313131"/>
<path d="M628.936 530.848H47.9531V532.43H628.936V530.848Z" fill="#4D4D4D"/>
<path d="M497.517 320.06H365.593V317.347H305.773V320.06H173.305C170.938 320.06 168.668 320.998 166.995 322.667C165.321 324.337 164.381 326.601 164.381 328.962V509.183C164.381 511.544 165.321 513.808 166.995 515.478C168.668 517.147 170.938 518.085 173.305 518.085H497.517C499.884 518.085 502.153 517.147 503.827 515.478C505.5 513.808 506.441 511.544 506.441 509.183V328.962C506.441 327.793 506.21 326.636 505.761 325.555C505.313 324.475 504.656 323.494 503.827 322.667C502.998 321.841 502.015 321.185 500.932 320.737C499.849 320.29 498.689 320.06 497.517 320.06Z" fill="#313131"/>
<path d="M85.9553 522.859H63.7622V545H85.9553V522.859Z" fill="#D0CDE1"/>
<path d="M72.4841 505.463V532.348H99.4329V505.463H72.4841ZM98.2598 531.178H73.6493V506.633H98.2598V531.178Z" fill="#3F3D56"/>
<path d="M599.567 522.859H577.374V545H599.567V522.859Z" fill="#D0CDE1"/>
<path d="M586.096 505.463V532.348H613.044V505.463H586.096ZM611.871 531.178H587.261V506.633H611.871V531.178Z" fill="#3F3D56"/>
<path d="M119.362 474.253C120.102 499.517 105.305 508.776 86.7359 509.317C86.3045 509.33 85.8751 509.337 85.4477 509.34C84.5865 509.347 83.7337 509.333 82.8893 509.297C66.0952 508.602 52.8017 499.708 52.1139 476.212C51.4022 451.897 81.6537 420.304 83.9234 417.967L83.9274 417.965C84.0136 417.876 84.0578 417.832 84.0578 417.832C84.0578 417.832 118.623 448.991 119.362 474.253Z" fill="#909090"/>
<path d="M85.3988 505.488L97.1947 487.988L85.4229 507.371L85.4475 509.34C84.5864 509.347 83.7336 509.333 82.8892 509.297L83.4742 483.984L83.4582 483.789L83.4798 483.751L83.5358 481.359L70.6179 462.648L83.5205 479.569L83.5663 480.075L84.0082 460.949L72.8507 441.55L84.04 457.59L83.9232 417.967L83.9235 417.836L83.9272 417.965L84.6679 449.193L94.8367 436.508L84.7012 451.883L84.9231 468.99L94.2805 452.294L84.9575 471.505L85.0811 481.017L98.6892 457.76L85.1225 484.336L85.3988 505.488Z" fill="#3F3D56"/>
<path d="M632.974 474.253C633.713 499.517 618.917 508.776 600.347 509.317C599.916 509.33 599.486 509.337 599.059 509.34C598.198 509.347 597.345 509.333 596.501 509.297C579.707 508.602 566.413 499.708 565.725 476.212C565.013 451.897 595.265 420.304 597.535 417.967L597.539 417.965C597.625 417.876 597.669 417.832 597.669 417.832C597.669 417.832 632.234 448.991 632.974 474.253Z" fill="#909090"/>
<path d="M599.01 505.488L610.806 487.988L599.034 507.371L599.059 509.34C598.198 509.347 597.345 509.333 596.501 509.297L597.086 483.984L597.07 483.789L597.091 483.751L597.147 481.359L584.229 462.648L597.132 479.569L597.178 480.075L597.62 460.949L586.462 441.55L597.651 457.59L597.535 417.967L597.535 417.836L597.539 417.965L598.279 449.193L608.448 436.508L598.313 451.883L598.535 468.99L607.892 452.294L598.569 471.505L598.692 481.017L612.301 457.76L598.734 484.336L599.01 505.488Z" fill="#3F3D56"/>
<path d="M347.98 397.762C347.98 398.087 347.734 399.363 347.542 400.04C347.302 400.87 346.492 402.697 346.107 403.275C346.007 403.427 345.921 403.567 345.921 403.593C345.921 403.779 344.074 406.257 343.071 407.406C342.459 408.11 340.088 410.507 339.41 411.105C339.065 411.411 338.493 411.922 338.148 412.234C337.802 412.54 337.324 412.958 337.085 413.164C336.846 413.363 336.46 413.689 336.221 413.895C335.251 414.718 333.311 416.286 331.371 417.806C330.375 418.59 329.159 419.553 326.721 421.479C326.043 422.011 325.333 422.588 325.133 422.755C324.509 423.286 324.163 423.578 323.665 423.983C322.742 424.74 320.955 426.341 319.991 427.271C318.377 428.825 316.357 431.316 315.819 432.405C315.746 432.558 315.613 432.803 315.52 432.949L315.354 433.215L315.401 432.949C315.534 432.126 316.178 430.02 316.709 428.666C317.699 426.148 318.822 424.349 320.357 422.848C321.014 422.197 322.39 421.161 322.589 421.161C322.622 421.161 322.728 421.087 322.828 420.994L323.001 420.835V411.53H313.168V429.888C313.168 440.023 313.195 448.265 313.228 448.285C313.255 448.305 313.394 448.013 313.534 447.641C314.192 445.848 315.235 444.114 316.882 442.082C317.739 441.026 320.21 438.455 321.008 437.791C321.247 437.592 321.639 437.26 321.878 437.047C323.612 435.546 326.136 433.507 328.442 431.747C328.82 431.462 329.485 430.95 329.91 430.625C330.335 430.293 331.059 429.742 331.511 429.403C331.963 429.057 332.561 428.593 332.833 428.367C333.105 428.148 333.564 427.789 333.849 427.57C334.733 426.886 334.846 426.799 336.015 425.843C338.932 423.472 339.071 423.352 341.556 420.895C343.808 418.67 344.426 417.986 345.681 416.325C347.023 414.552 348.139 412.533 348.804 410.7C350.152 406.934 350.179 403.381 348.877 399.442C348.565 398.499 348.146 397.496 348.053 397.463C348.007 397.45 347.98 397.556 347.98 397.762Z" fill="#F5F5F5"/>
<path d="M361.559 421.406C361.38 421.612 361.161 421.884 361.068 421.997C360.975 422.117 360.603 422.569 360.231 423.007C359.859 423.445 359.473 423.917 359.367 424.056C359.267 424.202 359.041 424.468 358.875 424.654C358.709 424.833 358.397 425.205 358.178 425.478C357.958 425.743 357.66 426.102 357.513 426.275C357.367 426.447 357.068 426.806 356.849 427.072C356.63 427.337 356.331 427.696 356.185 427.869C356.039 428.035 355.62 428.546 355.255 428.998C354.889 429.449 354.484 429.941 354.351 430.087C354.218 430.24 353.786 430.744 353.401 431.223C352.245 432.631 351.946 432.983 351.667 433.315C351.521 433.487 351.229 433.833 351.023 434.085C350.81 434.338 349.641 435.752 348.412 437.233C347.183 438.714 346.007 440.129 345.801 440.381C344.718 441.69 344.711 441.697 344.572 441.564C344.499 441.504 344.32 441.298 344.167 441.112C344.014 440.926 343.37 440.156 342.732 439.399C342.094 438.641 341.476 437.897 341.357 437.751C341.237 437.605 341.044 437.373 340.925 437.24C340.805 437.1 340.526 436.768 340.307 436.503C340.088 436.237 339.789 435.878 339.643 435.706C339.496 435.533 339.197 435.174 338.978 434.909C338.759 434.643 338.46 434.284 338.314 434.112C338.168 433.939 337.869 433.58 337.65 433.315C337.43 433.049 337.131 432.69 336.985 432.518C336.839 432.345 336.54 431.986 336.321 431.721C336.102 431.455 335.783 431.07 335.61 430.871C335.431 430.671 335.291 430.485 335.291 430.465C335.291 430.439 335.597 430.153 335.975 429.828C336.939 428.978 338.885 427.058 339.344 426.5C339.742 426.009 340.207 425.371 340.207 425.312C340.207 425.292 340.28 425.159 340.373 425.019C340.506 424.8 340.805 424.05 340.805 423.917C340.805 423.811 340.619 423.917 340.473 424.116C339.775 425.059 337.317 427.603 336.274 428.453C336.022 428.659 335.637 428.971 335.431 429.144C334.002 430.346 331.212 432.365 327.817 434.656C325.904 435.945 324.263 437.107 323.32 437.831C322.35 438.582 320.842 440.029 320.45 440.587C320.137 441.026 319.792 441.716 319.825 441.816C319.838 441.849 320.084 441.69 320.377 441.464C320.822 441.125 322.416 439.963 323.599 439.126C324.914 438.196 325.432 437.818 325.924 437.466C327.233 436.516 328.302 435.772 328.362 435.772C328.402 435.772 329.405 437.067 330.594 438.641C333.046 441.896 337.384 447.654 337.968 448.418C338.274 448.81 338.4 448.923 338.533 448.936C339.144 448.962 350.764 448.989 350.883 448.956C351.023 448.923 351.568 448.272 353.228 446.14C353.574 445.695 354.232 444.858 354.69 444.28C355.148 443.702 355.76 442.925 356.052 442.547C356.344 442.168 356.989 441.351 357.48 440.727C358.377 439.591 359.646 437.977 360.337 437.074C360.536 436.815 361.001 436.224 361.367 435.766C361.732 435.301 362.257 434.636 362.529 434.278C362.802 433.926 363.134 433.507 363.26 433.348C363.386 433.195 363.718 432.777 363.991 432.425C364.263 432.066 364.682 431.528 364.927 431.236C365.167 430.937 365.525 430.479 365.725 430.22C366.409 429.323 367.472 427.962 368.096 427.191C368.462 426.733 368.708 426.361 368.694 426.295C368.674 426.182 368.561 426.089 367.08 424.946C366.608 424.581 365.977 424.096 365.678 423.87C365.386 423.638 364.702 423.107 364.157 422.688C363.619 422.27 362.914 421.725 362.602 421.479C362.29 421.234 361.998 421.028 361.958 421.028C361.918 421.028 361.739 421.2 361.559 421.406Z" fill="#F5F5F5"/>
</g>
<defs>
<clipPath id="clip0">
<rect width="633" height="545" fill="white"/>
</clipPath>
</defs>
</svg>
