<svg width="380" height="200" viewBox="0 0 380 200" fill="none" xmlns="http://www.w3.org/2000/svg">
<g clip-path="url(#clip0)">
<path d="M355.615 111.269L319.664 128.284L351.483 104.491C346.311 96.4195 340.502 88.7747 334.11 81.6302L178.192 120.384L319.029 66.6596C312.594 60.9812 305.759 55.7717 298.578 51.071L60.9957 89.3393C35.7704 120.883 22.0194 160.066 22 200.456H379.626C379.611 169.132 371.329 138.367 355.615 111.269Z" fill="#F2F2F2"/>
<path d="M279.133 40.0237C254.741 28.1265 227.952 21.9618 200.813 22.0002C145.578 22.0002 96.1946 47.046 63.3943 86.3983C119.562 74.0915 217.354 52.7877 279.133 40.0237Z" fill="#F2F2F2"/>
<path d="M357.628 177.738C357.628 183.29 306.024 200 242.368 200C178.711 200 127.107 183.29 127.107 177.738C127.107 172.185 178.711 179.892 242.368 179.892C306.024 179.892 357.628 172.185 357.628 177.738Z" fill="#3F3D56"/>
<path opacity="0.1" d="M357.628 177.738C357.628 183.29 306.024 200 242.368 200C178.711 200 127.107 183.29 127.107 177.738C127.107 172.185 178.711 179.892 242.368 179.892C306.024 179.892 357.628 172.185 357.628 177.738Z" fill="black"/>
<path d="M242.368 187.792C306.024 187.792 357.628 183.291 357.628 177.738C357.628 172.185 306.024 167.684 242.368 167.684C178.711 167.684 127.107 172.185 127.107 177.738C127.107 183.291 178.711 187.792 242.368 187.792Z" fill="#3F3D56"/>
<path d="M328.251 95.7474C328.251 95.7474 323.615 103.1 325.271 105.091C326.926 107.082 312.849 107.131 312.849 107.131C312.849 107.131 314.964 96.4355 314.341 93.974L328.251 95.7474Z" fill="#FFD5A7"/>
<path opacity="0.1" d="M328.251 95.7474C328.251 95.7474 323.615 103.1 325.271 105.091C326.926 107.082 312.849 107.131 312.849 107.131C312.849 107.131 314.964 96.4355 314.341 93.974L328.251 95.7474Z" fill="black"/>
<path d="M286.652 162.668V171.286L278.034 169.49L278.752 163.386L286.652 162.668Z" fill="#FFD5A7"/>
<path d="M256.131 164.104L232.074 168.054L238.178 177.031C238.178 177.031 255.054 171.286 259.363 171.286C263.672 171.286 256.131 164.104 256.131 164.104Z" fill="#FFD5A7"/>
<path d="M310.709 146.869C310.709 146.869 292.756 126.043 287.011 127.12C281.266 128.198 278.752 134.661 278.752 134.661L275.521 166.618C275.521 166.618 287.011 167.695 287.011 166.618C287.011 165.54 289.165 142.56 289.165 142.56C289.165 142.56 306.041 179.903 315.018 155.128L310.709 146.869Z" fill="#2F2E41"/>
<path d="M339.794 160.873C339.794 160.873 339.435 178.826 328.663 179.903C317.891 180.98 306.041 172.722 306.041 172.722L286.652 163.433C286.652 163.433 263.672 175.594 256.849 172.363C256.849 172.363 249.668 164.822 254.336 162.668C259.004 160.514 254.695 162.668 254.695 162.668L282.343 148.305C282.343 148.305 287.729 146.869 297.065 150.819C306.401 154.768 318.968 156.564 318.968 156.564L339.794 160.873Z" fill="#2F2E41"/>
<path d="M321.84 99.4722C315.891 99.4722 311.068 94.6494 311.068 88.7002C311.068 82.751 315.891 77.9282 321.84 77.9282C327.79 77.9282 332.612 82.751 332.612 88.7002C332.612 94.6494 327.79 99.4722 321.84 99.4722Z" fill="#FFD5A7"/>
<path d="M306.4 118.862L307.119 133.943C307.119 133.943 306.76 153.691 309.991 155.128C311.625 155.853 314.907 157.311 317.941 158.905C320.217 160.097 322.354 161.361 323.546 162.449C323.862 162.718 324.135 163.034 324.354 163.386C325.79 165.9 335.126 165.54 337.28 163.745C339.435 161.95 337.998 165.9 339.794 166.618C341.532 167.314 343.941 161.619 342.465 153.117C342.418 152.833 342.365 152.546 342.307 152.255C340.659 144.014 343.248 124.277 342.849 116.65C342.826 116.067 342.765 115.487 342.666 114.912C341.589 109.167 327.844 97.4758 325.273 102.456C322.106 108.603 314.831 102.987 313.582 100.19C306.4 99.8313 303.887 108.449 303.887 108.449L306.4 118.862Z" fill="#3F3D56"/>
<path d="M277.316 168.054C277.316 168.054 283.061 170.208 284.856 169.849C286.652 169.49 288.447 170.926 288.447 173.081C288.447 175.235 290.602 180.262 287.37 180.621C284.138 180.98 270.853 180.262 267.98 181.339C267.98 181.339 255.054 181.698 256.131 176.312C257.208 170.926 262.594 171.286 262.594 171.286C262.594 171.286 277.316 170.567 277.316 168.054Z" fill="#2F2E41"/>
<path d="M235.305 169.131C235.305 169.131 234.587 166.977 233.51 166.977C232.433 166.977 223.815 168.413 222.738 168.054C221.661 167.695 209.094 166.977 211.248 173.081C213.402 179.185 220.584 179.903 220.584 179.903C220.584 179.903 233.51 178.467 235.305 178.826C237.101 179.185 243.564 178.826 242.487 177.031C241.409 175.235 234.587 172.004 235.305 169.131Z" fill="#2F2E41"/>
<path d="M267.99 117.556L266.02 125.682C265.998 125.772 266.001 125.867 266.03 125.956L274.966 153.881C275.001 153.991 275.073 154.086 275.17 154.15C275.267 154.214 275.383 154.243 275.499 154.231C275.614 154.22 275.722 154.169 275.805 154.088C275.888 154.006 275.94 153.899 275.953 153.783L277.189 142.905C277.198 142.833 277.19 142.76 277.168 142.69L268.965 117.518C268.931 117.413 268.864 117.322 268.773 117.259C268.682 117.196 268.574 117.164 268.463 117.168C268.353 117.173 268.247 117.213 268.161 117.283C268.076 117.353 268.016 117.449 267.99 117.556Z" fill="#D0CDE1"/>
<path d="M268.714 118.242L266.896 125.214L274.777 150.677L276.596 142.795L268.714 118.242Z" fill="#F2F2F2"/>
<path d="M308.424 156.133C308.121 157.042 276.899 155.83 276.596 155.527C276.331 155.147 276.108 154.741 275.929 154.314C275.644 153.708 275.383 153.102 275.383 153.102L276.596 143.287L307.515 142.189C307.515 142.189 308.288 150.507 308.445 154.314C308.499 154.92 308.492 155.529 308.424 156.133Z" fill="#D0CDE1"/>
<path opacity="0.1" d="M280.536 144.614L279.93 153.102H293.571V144.614H280.536Z" fill="black"/>
<path opacity="0.1" d="M298.117 147.342L298.036 147.326L298.421 150.98H305.999V147.342H298.117Z" fill="black"/>
<path opacity="0.1" d="M308.424 156.133C308.121 157.042 276.899 155.83 276.596 155.527C276.331 155.147 276.108 154.741 275.929 154.314H308.445C308.499 154.92 308.492 155.529 308.424 156.133Z" fill="black"/>
<path opacity="0.1" d="M317.941 158.905C318.827 160.582 319.869 162.323 320.045 163.027C320.163 163.505 321.477 163.228 323.546 162.449C327.693 160.88 334.881 157.286 341.589 153.691C341.898 153.527 342.191 153.335 342.465 153.117C342.418 152.833 342.364 152.546 342.307 152.255C340.659 144.014 343.248 124.277 342.849 116.65L339.793 115.63L333.689 121.375V145.792C333.689 145.792 317.89 154.409 316.813 155.128C316.264 155.494 317.021 157.163 317.941 158.905Z" fill="black"/>
<path d="M304.605 139.329L294.91 144.356C294.91 144.356 289.165 138.251 285.575 142.919C281.984 147.587 295.988 149.023 295.988 149.023C295.988 149.023 308.196 146.151 308.555 142.201C308.914 138.251 304.605 139.329 304.605 139.329Z" fill="#FFD5A7"/>
<path d="M320.763 152.614L315.018 154.05C315.018 154.05 308.555 146.151 301.733 149.023C294.91 151.896 310.35 157.641 310.35 157.641C310.35 157.641 318.609 161.95 321.84 158.359C325.072 154.768 320.763 152.614 320.763 152.614Z" fill="#FFD5A7"/>
<path d="M308.196 105.217C307.837 105.576 303.887 108.449 303.887 108.449C303.887 108.449 302.81 122.093 304.246 124.966C305.682 127.838 306.76 127.838 305.682 129.275C304.605 130.711 303.169 129.634 304.605 132.147C306.041 134.661 307.478 134.302 306.4 135.379C305.323 136.456 305.682 136.815 305.682 136.815L301.374 140.406C301.374 140.406 304.017 144.616 307.363 144.306C310.709 143.996 313.582 127.838 313.582 127.838L308.196 105.217Z" fill="#3F3D56"/>
<path d="M339.794 113.835L343.025 114.912C343.025 114.912 351.643 146.51 341.589 151.896C331.535 157.282 320.404 162.668 320.045 161.232C319.686 159.795 315.736 154.05 316.813 153.332C317.891 152.614 333.689 143.996 333.689 143.996V119.58L339.794 113.835Z" fill="#3F3D56"/>
<path opacity="0.1" d="M334.946 126.941L335.664 144.176L316.634 153.153L334.228 144.176L334.946 126.941Z" fill="black"/>
<path d="M363.768 165.761C356.531 170.028 353.682 178.606 353.682 178.606C353.682 178.606 362.567 180.265 369.804 175.998C377.041 171.731 379.89 163.153 379.89 163.153C379.89 163.153 371.005 161.493 363.768 165.761Z" fill="#3F3D56"/>
<path d="M366.304 168.406C362.251 175.765 353.761 178.865 353.761 178.865C353.761 178.865 351.841 170.033 355.894 162.673C359.946 155.314 368.437 152.214 368.437 152.214C368.437 152.214 370.357 161.047 366.304 168.406Z" fill="#0000FF"/>
<path d="M96.7451 61.3861C97.5383 61.3861 98.1814 60.743 98.1814 59.9498C98.1814 59.1566 97.5383 58.5135 96.7451 58.5135C95.9519 58.5135 95.3088 59.1566 95.3088 59.9498C95.3088 60.743 95.9519 61.3861 96.7451 61.3861Z" fill="#0000FF"/>
<path d="M100.695 61.3861C101.488 61.3861 102.131 60.743 102.131 59.9498C102.131 59.1566 101.488 58.5135 100.695 58.5135C99.9016 58.5135 99.2585 59.1566 99.2585 59.9498C99.2585 60.743 99.9016 61.3861 100.695 61.3861Z" fill="#0000FF"/>
<path d="M104.645 61.3861C105.438 61.3861 106.081 60.743 106.081 59.9498C106.081 59.1566 105.438 58.5135 104.645 58.5135C103.851 58.5135 103.208 59.1566 103.208 59.9498C103.208 60.743 103.851 61.3861 104.645 61.3861Z" fill="#0000FF"/>
<path opacity="0.3" d="M138.038 114.123H117.212V116.277H138.038V114.123Z" fill="#0000FF"/>
<path opacity="0.3" d="M136.912 118.791H117.212V120.945H136.912V118.791Z" fill="#0000FF"/>
<path opacity="0.3" d="M131.565 123.459H117.212V125.613H131.565V123.459Z" fill="#0000FF"/>
<g opacity="0.3">
<path opacity="0.3" d="M97.6637 136.04H76.8379V138.195H97.6637V136.04Z" fill="#0000FF"/>
<path opacity="0.3" d="M96.538 140.708H76.8379V142.863H96.538V140.708Z" fill="#0000FF"/>
<path opacity="0.3" d="M91.1908 145.376H76.8379V147.531H91.1908V145.376Z" fill="#0000FF"/>
<path opacity="0.3" d="M186.512 114.123H165.686V116.277H186.512V114.123Z" fill="#0000FF"/>
<path opacity="0.3" d="M185.386 118.791H165.686V120.945H185.386V118.791Z" fill="#0000FF"/>
<path opacity="0.3" d="M180.039 123.459H165.686V125.613H180.039V123.459Z" fill="#0000FF"/>
</g>
<path opacity="0.3" d="M236.781 114.123H215.955V116.277H236.781V114.123Z" fill="#0000FF"/>
<path opacity="0.3" d="M235.655 118.791H215.955V120.945H235.655V118.791Z" fill="#0000FF"/>
<path opacity="0.3" d="M230.308 123.459H215.955V125.613H230.308V123.459Z" fill="#0000FF"/>
<path opacity="0.3" d="M140.91 86.1158H114.339V109.814H140.91V86.1158Z" fill="#0000FF"/>
<path d="M189.384 86.1158H162.813V109.814H189.384V86.1158Z" fill="#3F3D56"/>
<path d="M239.653 86.1158H213.083V109.814H239.653V86.1158Z" fill="#3F3D56"/>
<path d="M172.637 109.715L172.286 109.708C172.294 109.32 172.513 100.171 176.115 97.6417L176.316 97.9286C172.86 100.355 172.639 109.621 172.637 109.715Z" fill="#0000FF"/>
<path d="M177.968 97.526C178.936 97.526 179.721 96.7412 179.721 95.7732C179.721 94.8052 178.936 94.0205 177.968 94.0205C177 94.0205 176.215 94.8052 176.215 95.7732C176.215 96.7412 177 97.526 177.968 97.526Z" fill="#0000FF"/>
<path d="M177.614 101.962C176.702 102.248 175.731 102.29 174.798 102.084C175.39 101.329 176.188 100.763 177.096 100.451C178.003 100.14 178.981 100.098 179.911 100.33C179.301 101.066 178.509 101.629 177.614 101.962Z" fill="#0000FF"/>
<path d="M222.906 109.715L222.556 109.708C222.563 109.32 222.782 100.171 226.384 97.6417L226.585 97.9286C223.129 100.355 222.908 109.621 222.906 109.715Z" fill="#0000FF"/>
<path d="M228.237 97.526C229.205 97.526 229.99 96.7412 229.99 95.7732C229.99 94.8052 229.205 94.0205 228.237 94.0205C227.269 94.0205 226.485 94.8052 226.485 95.7732C226.485 96.7412 227.269 97.526 228.237 97.526Z" fill="#0000FF"/>
<path d="M227.883 101.962C226.971 102.248 226 102.29 225.067 102.084C225.66 101.329 226.458 100.763 227.365 100.451C228.272 100.14 229.25 100.098 230.18 100.33C229.571 101.066 228.779 101.629 227.883 101.962Z" fill="#0000FF"/>
<path d="M262.993 155.461H91V56H262.993V155.461ZM91.7181 154.743H262.275V56.7181H91.7181V154.743Z" fill="#2F2E41"/>
<path d="M262.634 63.2047H91.3591V63.9228H262.634V63.2047Z" fill="#2F2E41"/>
<path d="M312.862 78.9655L310.841 78.1806C310.841 78.1806 315.068 73.6672 320.949 74.0597L319.295 72.2936C319.295 72.2936 323.338 70.7237 327.014 74.8446C328.946 77.0109 331.182 79.5572 332.576 82.4256H334.741L333.837 84.3553L337 86.2849L333.754 85.9383C333.947 86.995 333.977 88.0737 333.842 89.1389C333.703 90.2044 333.142 91.1758 332.278 91.848C332.278 91.848 329.771 86.8149 329.771 86.0299V87.9923C329.771 87.9923 327.749 86.2262 327.749 85.0488L326.647 86.4224L326.095 84.2638L319.295 86.4224L320.398 84.6563L316.171 85.245L317.825 83.0864C317.825 83.0864 313.046 85.6375 312.862 87.7961C312.679 89.9546 311.28 92 311.28 92C311.28 92 307.532 81.909 312.862 78.9655Z" fill="#493131"/>
</g>
<defs>
<clipPath id="clip0">
<rect width="379.89" height="200" fill="white"/>
</clipPath>
</defs>
</svg>
