<?xml version="1.0" standalone="no"?>
<!DOCTYPE svg PUBLIC "-//W3C//DTD SVG 20010904//EN"
 "http://www.w3.org/TR/2001/REC-SVG-20010904/DTD/svg10.dtd">
<svg version="1.0" xmlns="http://www.w3.org/2000/svg"
 width="512.000000pt" height="512.000000pt" viewBox="0 0 512.000000 512.000000"
 preserveAspectRatio="xMidYMid meet">

<g transform="translate(0.000000,512.000000) scale(0.100000,-0.100000)"
fill="#000000" stroke="none">
<path d="M4030 5111 c-132 -24 -380 -132 -577 -251 l-103 -62 -71 17 c-153 34
-278 46 -546 52 -356 8 -613 -17 -805 -77 l-60 -18 -90 59 c-255 167 -535 278
-704 279 l-52 0 -20 -48 c-82 -191 -104 -479 -52 -706 l20 -88 -81 -107 c-93
-123 -169 -272 -199 -388 -66 -265 -43 -649 54 -908 75 -198 176 -355 326
-506 258 -259 551 -393 1013 -464 l38 -6 -64 -64 c-71 -72 -123 -159 -147
-250 -15 -56 -19 -61 -64 -83 -135 -65 -398 -69 -533 -7 -66 30 -125 85 -221
204 -211 265 -289 322 -441 322 -83 0 -119 -8 -131 -31 -16 -30 -3 -46 106
-130 57 -44 126 -109 153 -143 27 -34 86 -136 131 -226 74 -148 89 -171 159
-241 83 -85 172 -135 291 -167 71 -19 317 -25 443 -10 l67 8 0 -306 c0 -284
-1 -308 -19 -343 -28 -52 -55 -81 -138 -146 -86 -67 -102 -91 -79 -115 28 -27
214 -22 289 8 81 32 175 98 211 149 l31 44 8 441 c4 243 12 465 18 494 10 50
62 143 80 143 12 0 11 -859 -1 -1034 -12 -160 -32 -218 -100 -292 -47 -51 -50
-77 -14 -101 23 -15 33 -15 87 -4 85 18 146 51 221 122 137 128 149 197 150
864 1 301 5 473 11 477 6 4 25 8 43 8 l33 0 -1 -522 c-1 -588 3 -639 64 -741
31 -53 75 -95 148 -141 121 -76 211 -94 234 -47 17 33 5 61 -59 135 -121 139
-117 117 -117 748 0 556 -1 547 49 494 60 -63 83 -203 111 -661 21 -339 21
-340 51 -403 47 -98 134 -160 264 -188 118 -26 255 -10 255 30 0 8 -44 50 -97
93 -75 60 -104 91 -126 133 l-29 55 5 335 c6 365 -3 601 -28 725 -28 140 -94
254 -184 321 -28 21 -48 41 -46 44 2 4 32 10 65 13 33 4 107 16 163 27 623
126 1016 457 1132 956 51 218 63 576 27 774 -22 119 -50 211 -97 315 -35 79
-73 139 -164 258 l-74 99 14 111 c18 149 16 372 -4 463 -16 70 -49 166 -66
193 -11 17 -97 23 -161 12z"/>
</g>
</svg>
