<svg width="273" height="200" viewBox="0 0 273 200" fill="none" xmlns="http://www.w3.org/2000/svg">
<g clip-path="url(#clip0)">
<path d="M173.969 149.934V198.146H54.4589C40.8423 198.146 29.7637 187.332 29.7637 174.04C29.7637 160.748 40.8423 149.934 54.4589 149.934H173.969Z" fill="#F2F2F2"/>
<path d="M176.905 197.775C176.905 198.267 176.711 198.738 176.367 199.086C176.023 199.433 175.557 199.629 175.07 199.629H52.3301C45.6639 199.629 39.2707 196.953 34.557 192.188C29.8432 187.424 27.1951 180.963 27.1951 174.225C27.1951 167.488 29.8432 161.026 34.557 156.262C39.2707 151.498 45.6639 148.821 52.3301 148.821H175.07C175.557 148.821 176.023 149.017 176.367 149.364C176.711 149.712 176.905 150.184 176.905 150.675C176.905 151.167 176.711 151.639 176.367 151.987C176.023 152.334 175.557 152.53 175.07 152.53H52.3301C46.6371 152.53 41.1772 154.816 37.1516 158.884C33.126 162.953 30.8644 168.471 30.8644 174.225C30.8644 179.979 33.126 185.497 37.1516 189.566C41.1772 193.635 46.6371 195.92 52.3301 195.92H175.07C175.557 195.921 176.023 196.116 176.367 196.464C176.711 196.812 176.905 197.283 176.905 197.775Z" fill="#0000FF"/>
<path d="M173.969 161.06H45.5417C45.4444 161.06 45.3511 161.021 45.2823 160.951C45.2135 160.881 45.1748 160.787 45.1748 160.689C45.1748 160.59 45.2135 160.496 45.2823 160.427C45.3511 160.357 45.4444 160.318 45.5417 160.318H173.969C174.067 160.318 174.16 160.357 174.229 160.427C174.297 160.496 174.336 160.59 174.336 160.689C174.336 160.787 174.297 160.881 174.229 160.951C174.16 161.021 174.067 161.06 173.969 161.06Z" fill="#CCCCCC"/>
<path d="M173.969 169.96H45.5417C45.4444 169.96 45.3511 169.921 45.2823 169.852C45.2135 169.782 45.1748 169.688 45.1748 169.589C45.1748 169.491 45.2135 169.397 45.2823 169.327C45.3511 169.258 45.4444 169.219 45.5417 169.219H173.969C174.067 169.219 174.16 169.258 174.229 169.327C174.297 169.397 174.336 169.491 174.336 169.589C174.336 169.688 174.297 169.782 174.229 169.852C174.16 169.921 174.067 169.96 173.969 169.96Z" fill="#CCCCCC"/>
<path d="M173.969 178.861H45.5417C45.4444 178.861 45.3511 178.822 45.2823 178.752C45.2135 178.683 45.1748 178.588 45.1748 178.49C45.1748 178.392 45.2135 178.297 45.2823 178.228C45.3511 178.158 45.4444 178.119 45.5417 178.119H173.969C174.067 178.119 174.16 178.158 174.229 178.228C174.297 178.297 174.336 178.392 174.336 178.49C174.336 178.588 174.297 178.683 174.229 178.752C174.16 178.822 174.067 178.861 173.969 178.861Z" fill="#CCCCCC"/>
<path d="M173.969 187.762H45.5417C45.4444 187.762 45.3511 187.723 45.2823 187.653C45.2135 187.583 45.1748 187.489 45.1748 187.391C45.1748 187.292 45.2135 187.198 45.2823 187.129C45.3511 187.059 45.4444 187.02 45.5417 187.02H173.969C174.067 187.02 174.16 187.059 174.229 187.129C174.297 187.198 174.336 187.292 174.336 187.391C174.336 187.489 174.297 187.583 174.229 187.653C174.16 187.723 174.067 187.762 173.969 187.762Z" fill="#CCCCCC"/>
<path d="M266.333 159.009L236.404 196.551L143.344 120.765C132.741 112.131 130.827 96.6844 139.079 86.3344C147.33 75.9844 162.67 74.5889 173.273 83.2236L266.333 159.009Z" fill="#F2F2F2"/>
<path d="M238.92 198.123C238.615 198.506 238.172 198.751 237.688 198.803C237.204 198.856 236.72 198.712 236.341 198.404L140.766 120.571C135.575 116.343 132.258 110.205 131.545 103.506C130.832 96.8072 132.781 90.0964 136.964 84.85C141.146 79.6036 147.219 76.2513 153.847 75.5307C160.475 74.8101 167.115 76.7801 172.306 81.0074L267.881 158.841C268.069 158.994 268.225 159.182 268.341 159.396C268.456 159.61 268.529 159.844 268.555 160.087C268.581 160.329 268.559 160.574 268.491 160.807C268.424 161.041 268.311 161.259 268.16 161.449C268.008 161.639 267.822 161.796 267.61 161.913C267.399 162.03 267.166 162.103 266.927 162.129C266.687 162.155 266.445 162.133 266.213 162.064C265.982 161.996 265.767 161.882 265.579 161.729L170.004 83.8952C167.809 82.1063 165.287 80.772 162.582 79.9685C159.876 79.165 157.041 78.908 154.238 79.2122C151.434 79.5165 148.717 80.376 146.242 81.7416C143.768 83.1073 141.583 84.9524 139.814 87.1715C138.045 89.3905 136.726 91.9401 135.932 94.6746C135.138 97.4091 134.885 100.275 135.187 103.108C135.489 105.942 136.341 108.687 137.693 111.188C139.045 113.689 140.871 115.896 143.068 117.683L238.643 195.516C239.022 195.825 239.264 196.273 239.316 196.762C239.368 197.251 239.226 197.74 238.92 198.123Z" fill="#CCCCCC"/>
<path d="M259.427 167.673L159.423 86.2325C159.385 86.202 159.354 86.1642 159.331 86.1215C159.308 86.0787 159.293 86.0318 159.288 85.9834C159.283 85.935 159.287 85.886 159.301 85.8393C159.315 85.7925 159.337 85.749 159.367 85.711C159.398 85.6731 159.435 85.6416 159.477 85.6183C159.519 85.5949 159.566 85.5802 159.614 85.575C159.662 85.5698 159.71 85.5742 159.756 85.5879C159.803 85.6016 159.846 85.6244 159.883 85.655L259.887 167.095C259.925 167.126 259.956 167.163 259.979 167.206C260.002 167.249 260.017 167.296 260.022 167.344C260.027 167.393 260.023 167.442 260.009 167.488C259.996 167.535 259.973 167.579 259.943 167.617C259.913 167.655 259.875 167.686 259.833 167.71C259.791 167.733 259.744 167.748 259.696 167.753C259.648 167.758 259.6 167.754 259.554 167.74C259.507 167.726 259.464 167.703 259.427 167.673V167.673Z" fill="#CCCCCC"/>
<path d="M253.902 174.603L153.898 93.1632C153.822 93.1015 153.774 93.0119 153.763 92.9142C153.753 92.8165 153.781 92.7186 153.842 92.6421C153.903 92.5656 153.992 92.5166 154.089 92.5061C154.185 92.4955 154.282 92.5241 154.358 92.5857L254.362 174.026C254.4 174.056 254.431 174.094 254.454 174.137C254.477 174.179 254.492 174.226 254.497 174.275C254.502 174.323 254.498 174.372 254.484 174.419C254.471 174.466 254.448 174.51 254.418 174.547C254.388 174.585 254.35 174.617 254.308 174.64C254.266 174.664 254.219 174.678 254.171 174.684C254.123 174.689 254.075 174.684 254.028 174.671C253.982 174.657 253.939 174.634 253.902 174.603Z" fill="#CCCCCC"/>
<path d="M248.376 181.534L148.372 100.094C148.296 100.032 148.248 99.9428 148.237 99.845C148.227 99.7472 148.256 99.6492 148.317 99.5726C148.378 99.496 148.466 99.4471 148.563 99.4366C148.66 99.4261 148.757 99.4548 148.833 99.5165L248.836 180.957C248.874 180.987 248.905 181.025 248.928 181.068C248.951 181.11 248.966 181.157 248.971 181.206C248.976 181.254 248.972 181.303 248.958 181.35C248.945 181.397 248.922 181.44 248.892 181.478C248.862 181.516 248.824 181.548 248.782 181.571C248.74 181.594 248.693 181.609 248.645 181.614C248.598 181.619 248.549 181.615 248.503 181.601C248.457 181.587 248.413 181.565 248.376 181.534V181.534Z" fill="#CCCCCC"/>
<path d="M242.851 188.465L142.847 107.025C142.809 106.994 142.778 106.957 142.755 106.914C142.732 106.871 142.717 106.824 142.712 106.776C142.707 106.727 142.711 106.678 142.725 106.632C142.738 106.585 142.761 106.541 142.791 106.503C142.821 106.465 142.859 106.434 142.901 106.411C142.943 106.387 142.99 106.373 143.038 106.367C143.086 106.362 143.134 106.367 143.18 106.38C143.226 106.394 143.27 106.417 143.307 106.447L243.311 187.887C243.349 187.918 243.38 187.956 243.403 187.998C243.426 188.041 243.441 188.088 243.446 188.137C243.451 188.185 243.447 188.234 243.433 188.281C243.42 188.328 243.397 188.371 243.367 188.409C243.337 188.447 243.299 188.479 243.257 188.502C243.215 188.525 243.168 188.54 243.12 188.545C243.072 188.55 243.024 188.546 242.977 188.532C242.931 188.518 242.888 188.496 242.851 188.465Z" fill="#CCCCCC"/>
<path d="M272.633 200H0.366935C0.269618 200 0.176286 199.961 0.107473 199.891C0.0386589 199.822 0 199.728 0 199.629C0 199.531 0.0386589 199.436 0.107473 199.367C0.176286 199.297 0.269618 199.258 0.366935 199.258H272.633C272.73 199.258 272.824 199.297 272.893 199.367C272.961 199.436 273 199.531 273 199.629C273 199.728 272.961 199.822 272.893 199.891C272.824 199.961 272.73 200 272.633 200Z" fill="#CCCCCC"/>
<path d="M124.054 144.866L119.859 144.866L117.864 128.512L124.056 128.513L124.054 144.866Z" fill="#FFD5A7"/>
<path d="M116.862 143.655H124.952V148.803H111.769C111.769 148.127 111.9 147.457 112.156 146.833C112.412 146.208 112.787 145.641 113.26 145.163C113.733 144.684 114.295 144.305 114.913 144.047C115.531 143.788 116.193 143.655 116.862 143.655Z" fill="#2F2E41"/>
<path d="M81.1976 144.866L77.0028 144.866L75.0078 128.512L81.1991 128.513L81.1976 144.866Z" fill="#FFD5A7"/>
<path d="M74.0064 143.655H82.0965V148.803H68.9126C68.9126 148.127 69.0444 147.457 69.3003 146.833C69.5563 146.208 69.9315 145.641 70.4045 145.163C70.8775 144.684 71.4391 144.305 72.0571 144.047C72.6751 143.788 73.3374 143.655 74.0064 143.655Z" fill="#2F2E41"/>
<path d="M95.209 23.5619V21.7076C95.209 18.5355 96.4557 15.4934 98.675 13.2504C100.894 11.0074 103.904 9.74731 107.043 9.74731H107.043C110.181 9.74731 113.191 11.0074 115.41 13.2504C117.63 15.4934 118.876 18.5355 118.876 21.7076V23.5619C118.876 25.8487 117.978 28.0419 116.378 29.6589C114.778 31.276 112.608 32.1844 110.345 32.1844H103.74C102.62 32.1844 101.511 31.9614 100.475 31.5281C99.4404 31.0948 98.4999 30.4596 97.7077 29.6589C96.9155 28.8583 96.2871 27.9077 95.8584 26.8616C95.4297 25.8155 95.209 24.6942 95.209 23.5619Z" fill="#2F2E41"/>
<path d="M107.043 32.8224C112.02 32.8224 116.055 28.7443 116.055 23.7137C116.055 18.6831 112.02 14.605 107.043 14.605C102.065 14.605 98.0303 18.6831 98.0303 23.7137C98.0303 28.7443 102.065 32.8224 107.043 32.8224Z" fill="#FFD5A7"/>
<path d="M58.0215 55.0193C58.3873 54.6702 58.8243 54.4065 59.3018 54.2466C59.7793 54.0867 60.2856 54.0346 60.7852 54.0939C61.2848 54.1532 61.7654 54.3225 62.1933 54.5899C62.6211 54.8573 62.9857 55.2162 63.2615 55.6414L70.9872 54.1644L73.0203 58.6906L62.0812 60.6215C61.3437 61.0424 60.4792 61.1752 59.6513 60.9948C58.8234 60.8144 58.0898 60.3334 57.5894 59.6428C57.089 58.9523 56.8566 58.1002 56.9362 57.2481C57.0159 56.3959 57.402 55.6029 58.0215 55.0193V55.0193Z" fill="#FFD5A7"/>
<path d="M100.016 38.5589L100.117 38.7136L87.4487 47.1486L66.0716 54.0478C65.7882 54.1399 65.5452 54.3283 65.3838 54.5811C65.2224 54.8339 65.1527 55.1353 65.1866 55.4342L65.6529 59.4939C65.6736 59.6736 65.7312 59.8469 65.822 60.0027C65.9129 60.1586 66.0349 60.2935 66.1804 60.3989C66.3258 60.5043 66.4915 60.5779 66.6667 60.6148C66.8419 60.6517 67.0228 60.6512 67.1978 60.6133L87.3168 56.2547C88.2904 56.045 89.2111 55.6353 90.0216 55.0511L104.254 44.8165C104.77 44.4434 105.182 43.9418 105.449 43.3603C105.717 42.7788 105.831 42.1373 105.78 41.4982C105.728 40.8582 105.512 40.2429 105.153 39.7129C104.794 39.1829 104.305 38.7565 103.734 38.4755C103.162 38.1945 102.528 38.0687 101.894 38.1105C101.26 38.1522 100.648 38.3601 100.117 38.7136L100.016 38.5589Z" fill="#CCCCCC"/>
<path d="M119.934 140.226C119.612 140.226 119.297 140.131 119.027 139.953C118.758 139.775 118.545 139.522 118.416 139.224L99.1845 91.197C99.1396 91.0929 99.0642 91.0051 98.9685 90.9455C98.8728 90.886 98.7613 90.8575 98.649 90.8638C98.5368 90.8702 98.4292 90.9112 98.3407 90.9813C98.2522 91.0513 98.187 91.1471 98.154 91.2557L82.4644 138.012C82.3982 138.229 82.2886 138.431 82.1424 138.604C81.9963 138.777 81.8166 138.918 81.6144 139.019C81.4123 139.119 81.192 139.177 80.967 139.188C80.742 139.199 80.5172 139.164 80.3063 139.084L75.045 137.09C74.7594 136.982 74.5089 136.797 74.3212 136.555C74.1336 136.312 74.0161 136.022 73.982 135.716C71.6151 114.876 92.2554 62.2743 92.4642 61.7455L92.522 61.599L111.337 65.8056L111.377 65.8487C118.883 74.1255 125.053 126.329 126.214 136.71C126.257 137.085 126.173 137.464 125.975 137.784C125.777 138.104 125.477 138.346 125.124 138.471L120.48 140.131C120.305 140.194 120.12 140.226 119.934 140.226Z" fill="#2F2E41"/>
<path d="M103.722 67.4988C99.1638 67.4988 94.0814 66.5802 92.517 62.7886L92.481 62.7015L92.5296 62.6207C93.7645 60.573 95.3965 57.0799 94.5193 56.4242C92.7913 55.1329 91.9528 53.0086 92.0273 50.1102C92.1889 43.8182 96.4307 38.2319 102.582 36.2094H102.583C104.3 35.654 106.047 35.1992 107.816 34.8475C109.106 34.5844 110.437 34.6134 111.714 34.9322C112.992 35.251 114.183 35.8517 115.203 36.6913C116.237 37.5363 117.072 38.6021 117.649 39.8122C118.226 41.0222 118.531 42.3464 118.541 43.6896C118.606 50.4137 117.581 59.7788 112.335 66.2084C112.09 66.5067 111.747 66.7078 111.369 66.7763C108.845 67.2377 106.287 67.4794 103.722 67.4988Z" fill="#CCCCCC"/>
<path d="M102.027 67.2469C102.275 66.3475 102.864 65.5833 103.667 65.1206C104.469 64.6578 105.42 64.5338 106.312 64.7755C106.494 64.8269 106.672 64.8934 106.843 64.9743L112.709 59.5787L116.789 62.3566L108.4 69.8594C108.021 70.5497 107.425 71.0921 106.706 71.4004C105.987 71.7086 105.187 71.7649 104.432 71.5604C103.993 71.4389 103.582 71.2305 103.223 70.9474C102.863 70.6642 102.563 70.3119 102.339 69.9108C102.116 69.5097 101.973 69.0677 101.919 68.6105C101.866 68.1533 101.902 67.6898 102.027 67.2469Z" fill="#FFD5A7"/>
<path d="M111.78 67.3155C111.4 67.3158 111.031 67.1827 110.736 66.939L108.423 65.0284C108.23 64.8692 108.075 64.6678 107.97 64.4396C107.865 64.2113 107.813 63.9621 107.817 63.7104C107.82 63.4587 107.881 63.2112 107.992 62.9863C108.104 62.7615 108.265 62.5651 108.463 62.4119L118.165 54.891C118.28 54.8014 118.356 54.6696 118.375 54.5241C118.395 54.3787 118.356 54.2314 118.269 54.1141L112.281 46.1124C111.585 45.1858 111.236 44.0403 111.296 42.8787C111.355 41.7171 111.819 40.6142 112.606 39.7654C113.435 38.8608 114.57 38.3041 115.786 38.2058C117.002 38.1075 118.21 38.4748 119.17 39.2348L119.208 39.2752L125.461 48.325C126.137 48.8609 126.682 49.5475 127.052 50.3312C127.422 51.1149 127.608 51.9745 127.596 52.8429C127.583 53.7112 127.372 54.5649 126.978 55.3371C126.585 56.1093 126.021 56.7792 125.329 57.2945L112.763 66.9883C112.478 67.2008 112.134 67.3155 111.78 67.3155Z" fill="#CCCCCC"/>
<path d="M99.0598 21.1513V16.6319L107.043 13.1088L114.655 16.6319V21.1513C114.655 21.348 114.577 21.5367 114.44 21.6758C114.302 21.8149 114.115 21.893 113.921 21.893H99.7937C99.5991 21.893 99.4124 21.8149 99.2748 21.6758C99.1371 21.5367 99.0598 21.348 99.0598 21.1513Z" fill="#2F2E41"/>
<path d="M106.676 10.3469C105.503 6.54981 107.968 2.1982 111.612 0.69522C115.256 -0.807757 119.616 0.24287 122.691 2.72601C125.766 5.20916 127.674 8.92844 128.685 12.7731C129.696 16.6177 129.888 20.6267 130.074 24.6003C134.552 25.4316 137.597 30.799 136.046 35.1247C134.495 39.4505 128.754 41.5995 124.79 39.3386C120.825 37.0776 119.676 30.9999 122.538 27.4214C123.892 25.7282 124.648 23.6268 124.687 21.45C124.726 19.2733 124.045 17.1456 122.753 15.4041C121.46 13.6625 119.63 12.4066 117.551 11.8352C115.473 11.2638 113.265 11.4097 111.277 12.2496C109.071 13.1823 106.302 10.759 106.676 10.3469Z" fill="#2F2E41"/>
<path d="M56.3664 37.4877C51.0057 37.4521 45.712 36.2803 40.8273 34.048C40.5365 33.917 40.2897 33.7034 40.117 33.4331C39.9442 33.1629 39.8529 32.8477 39.8543 32.5259V19.0199C39.8547 18.5775 40.0289 18.1533 40.3384 17.8404C40.648 17.5275 41.0677 17.3516 41.5055 17.3511H71.2272C71.665 17.3516 72.0847 17.5276 72.3943 17.8404C72.7038 18.1533 72.878 18.5775 72.8785 19.0199V32.526C72.8798 32.8477 72.7885 33.1629 72.6157 33.4331C72.443 33.7034 72.1962 33.917 71.9054 34.048C67.0207 36.2803 61.727 37.4521 56.3664 37.4877Z" fill="#0000FF"/>
<path d="M56.3623 26.5461C56.142 26.5463 55.9238 26.502 55.7206 26.4157L32.1517 16.3656C31.8477 16.236 31.5892 16.0173 31.4093 15.7378C31.2295 15.4583 31.1366 15.1308 31.1426 14.7974C31.1487 14.4641 31.2534 14.1402 31.4432 13.8676C31.6331 13.5949 31.8994 13.386 32.2078 13.2678L55.7771 4.23072C56.1567 4.0845 56.5765 4.0854 56.9555 4.23326L80.2089 13.2703C80.5156 13.3895 80.7801 13.5984 80.9687 13.8704C81.1572 14.1424 81.2611 14.4651 81.2672 14.7971C81.2733 15.1292 81.1812 15.4555 81.0027 15.7343C80.8243 16.0132 80.5676 16.2319 80.2655 16.3625L57.0117 26.4125C56.8064 26.5009 56.5855 26.5463 56.3623 26.5461Z" fill="#0000FF"/>
<path d="M42.6064 34.9669C43.8223 34.9669 44.808 33.9707 44.808 32.7418C44.808 31.5128 43.8223 30.5166 42.6064 30.5166C41.3905 30.5166 40.4048 31.5128 40.4048 32.7418C40.4048 33.9707 41.3905 34.9669 42.6064 34.9669Z" fill="#3F3D56"/>
<path opacity="0.2" d="M80.3461 14.936L57.0923 24.986C56.911 25.0643 56.7159 25.105 56.5188 25.1054C56.3216 25.1059 56.1264 25.0662 55.9447 24.9888L32.3757 14.9389C32.0797 14.8157 31.8328 14.5963 31.6739 14.3155C31.57 14.4976 31.5056 14.7 31.485 14.9092C31.4644 15.1184 31.4881 15.3297 31.5544 15.529C31.6208 15.7282 31.7284 15.9109 31.87 16.065C32.0116 16.219 32.184 16.3408 32.3757 16.4223L55.9447 26.4722C56.1264 26.5497 56.3216 26.5894 56.5188 26.5889C56.7159 26.5884 56.911 26.5478 57.0923 26.4694L80.3461 16.4194C80.5369 16.3372 80.7082 16.215 80.8488 16.0609C80.9894 15.9067 81.0961 15.7243 81.1618 15.5254C81.2275 15.3266 81.2507 15.1159 81.2299 14.9074C81.2092 14.6988 81.1448 14.497 81.0412 14.3154C80.8835 14.5941 80.6391 14.8122 80.3461 14.936Z" fill="black"/>
<path d="M42.7913 32.7331C42.8886 32.7331 42.9819 32.694 43.0507 32.6244C43.1195 32.5549 43.1582 32.4606 43.1582 32.3622V19.9527L55.2602 15.4967C55.3575 15.4982 55.4514 15.4605 55.5212 15.392C55.5911 15.3235 55.6311 15.2297 55.6326 15.1314C55.634 15.033 55.5967 14.9381 55.529 14.8675C55.4612 14.7969 55.3684 14.7565 55.2711 14.755L43.1691 19.2109C43.0717 19.2087 42.9749 19.2264 42.8845 19.2631C42.7941 19.2998 42.712 19.3546 42.6432 19.4243C42.5736 19.4931 42.5184 19.5753 42.4808 19.6661C42.4432 19.7568 42.424 19.8543 42.4243 19.9527V32.3622C42.4243 32.4606 42.463 32.5549 42.5318 32.6244C42.6006 32.694 42.6939 32.733 42.7913 32.7331Z" fill="#3F3D56"/>
</g>
<defs>
<clipPath id="clip0">
<rect width="273" height="200" fill="white"/>
</clipPath>
</defs>
</svg>
