<?xml version="1.0" standalone="no"?>
<!DOCTYPE svg PUBLIC "-//W3C//DTD SVG 20010904//EN"
 "http://www.w3.org/TR/2001/REC-SVG-20010904/DTD/svg10.dtd">
<svg version="1.0" xmlns="http://www.w3.org/2000/svg"
 width="512.000000pt" height="512.000000pt" viewBox="0 0 512.000000 512.000000"
 preserveAspectRatio="xMidYMid meet">

<g transform="translate(0.000000,512.000000) scale(0.100000,-0.100000)"
fill="#000000" stroke="none">
<path d="M1865 5109 c-490 -17 -659 -36 -850 -100 -302 -101 -556 -289 -720
-534 -141 -211 -219 -433 -260 -741 -46 -343 -46 -2005 0 -2348 47 -352 139
-588 320 -821 222 -285 590 -482 983 -524 431 -47 1750 -52 2337 -10 477 34
858 226 1108 558 162 214 260 472 302 796 46 345 46 2005 0 2350 -9 66 -27
170 -42 230 -121 513 -452 882 -938 1044 -198 66 -353 83 -890 101 -338 11
-1019 11 -1350 -1z m1620 -409 c105 -5 227 -15 272 -20 449 -57 774 -339 888
-772 58 -221 74 -521 74 -1348 0 -827 -16 -1127 -74 -1348 -114 -431 -436
-713 -885 -771 -191 -25 -560 -36 -1225 -35 -719 1 -1116 16 -1267 49 -367 80
-640 314 -762 652 -64 180 -84 330 -97 743 -13 383 -5 1538 11 1725 19 220 69
424 137 560 133 264 390 458 693 526 92 20 295 36 625 49 270 11 1362 4 1610
-10z"/>
<path d="M3843 4192 c-251 -90 -272 -432 -35 -549 81 -40 183 -40 264 0 107
53 163 144 163 267 0 85 -21 142 -74 203 -72 81 -213 117 -318 79z"/>
<path d="M2365 3795 c-325 -51 -622 -229 -817 -490 -71 -95 -169 -291 -198
-395 -102 -369 -42 -739 170 -1056 68 -101 223 -256 324 -324 317 -212 687
-272 1056 -170 105 29 300 127 396 199 45 33 116 97 159 142 407 433 458 1071
125 1564 -68 101 -184 222 -285 297 -95 71 -291 169 -395 198 -175 48 -371 61
-535 35z m418 -419 c287 -85 495 -292 584 -583 23 -78 26 -104 26 -233 0 -129
-3 -155 -26 -233 -89 -291 -293 -495 -584 -584 -78 -23 -104 -26 -233 -26
-129 0 -155 3 -233 26 -352 108 -590 403 -614 763 -28 435 274 814 714 894 88
16 269 4 366 -24z"/>
</g>
</svg>
