<svg width="50" height="47" viewBox="0 0 50 47" fill="none" xmlns="http://www.w3.org/2000/svg">
<path d="M31.3469 0.270201C31.3469 0.56333 31.1256 1.71192 30.9521 2.32211C30.7367 3.06989 30.0069 4.715 29.6599 5.23546C29.5702 5.37305 29.4924 5.49868 29.4924 5.5226C29.4924 5.69011 27.8294 7.92148 26.926 8.95641C26.3757 9.59053 24.24 11.7501 23.6298 12.2885C23.3188 12.5637 22.8043 13.0243 22.4932 13.3055C22.1821 13.5807 21.7514 13.9576 21.5361 14.143C21.3207 14.3225 20.9737 14.6156 20.7584 14.8011C19.885 15.5429 18.1381 16.9547 16.3913 18.3246C15.494 19.0305 14.3992 19.8979 12.2038 21.6328C11.5936 22.1113 10.9535 22.6318 10.774 22.7814C10.2117 23.2599 9.9006 23.5232 9.45193 23.8881C8.6204 24.57 7.01118 26.0118 6.14376 26.8493C4.69007 28.2491 2.87147 30.4925 2.38691 31.4736C2.32111 31.6111 2.20146 31.8325 2.11771 31.9641L1.96816 32.2034L2.01003 31.9641C2.12968 31.2223 2.70995 29.3259 3.18853 28.1056C4.07989 25.8383 5.09088 24.2171 6.47278 22.8651C7.06502 22.2789 8.30334 21.3456 8.48281 21.3456C8.51272 21.3456 8.60844 21.2798 8.69817 21.1961L8.85371 21.0525V12.6714H0V29.2063C0 38.3352 0.0239289 45.7591 0.0538401 45.7771C0.0777691 45.795 0.203396 45.5318 0.329023 45.1968C0.921265 43.5816 1.86048 42.0202 3.34407 40.1897C4.11578 39.2385 6.34117 36.9234 7.05904 36.3251C7.2744 36.1457 7.62735 35.8466 7.84271 35.6551C9.40408 34.3031 11.6773 32.4666 13.7532 30.8813C14.0942 30.6241 14.6924 30.1634 15.0752 29.8703C15.4581 29.5712 16.1102 29.0747 16.517 28.7696C16.9237 28.4585 17.4622 28.0397 17.7074 27.8363C17.9527 27.6389 18.3655 27.3159 18.6227 27.1185C19.4183 26.5023 19.52 26.4245 20.5729 25.5631C23.1991 23.4274 23.3247 23.3198 25.5621 21.1063C27.5901 19.1023 28.1464 18.4861 29.2771 16.9906C30.4855 15.3933 31.4905 13.5747 32.0887 11.9236C33.3031 8.53167 33.327 5.33117 32.1545 1.78371C31.8734 0.934229 31.4965 0.0309113 31.4127 0.00100014C31.3709 -0.0109643 31.3469 0.0847514 31.3469 0.270201Z" fill="#4D4DFF"/>
<path d="M43.5746 21.567C43.4131 21.7524 43.2157 21.9977 43.1319 22.0994C43.0482 22.2071 42.7132 22.6139 42.3782 23.0087C42.0432 23.4035 41.6962 23.8283 41.6005 23.9539C41.5107 24.0855 41.3073 24.3248 41.1578 24.4923C41.0082 24.6538 40.7271 24.9888 40.5297 25.2341C40.3322 25.4734 40.063 25.7964 39.9314 25.9519C39.7998 26.1075 39.5306 26.4305 39.3332 26.6698C39.1358 26.9091 38.8666 27.2321 38.735 27.3877C38.6034 27.5372 38.2265 27.9979 37.8975 28.4047C37.5685 28.8115 37.2035 29.2541 37.0839 29.3858C36.9642 29.5233 36.5754 29.978 36.2284 30.4087C35.1875 31.6769 34.9183 31.994 34.6671 32.2931C34.5355 32.4487 34.2722 32.7597 34.0868 32.9871C33.8954 33.2144 32.8425 34.4886 31.7358 35.8226C30.6291 37.1567 29.5702 38.4309 29.3847 38.6582C28.4096 39.8367 28.4037 39.8427 28.278 39.7231C28.2122 39.6692 28.0507 39.4838 27.9131 39.3163C27.7755 39.1488 27.1953 38.4548 26.621 37.7728C26.0467 37.0909 25.4903 36.4209 25.3826 36.2893C25.275 36.1576 25.1015 35.9483 24.9938 35.8286C24.8861 35.703 24.6349 35.4039 24.4374 35.1646C24.24 34.9253 23.9708 34.6023 23.8392 34.4467C23.7076 34.2912 23.4384 33.9681 23.241 33.7289C23.0436 33.4896 22.7744 33.1665 22.6428 33.011C22.5112 32.8554 22.242 32.5324 22.0445 32.2931C21.8471 32.0538 21.5779 31.7308 21.4463 31.5753C21.3147 31.4197 21.0455 31.0967 20.8481 30.8574C20.6507 30.6181 20.3635 30.2711 20.208 30.0917C20.0465 29.9122 19.9209 29.7447 19.9209 29.7267C19.9209 29.7028 20.196 29.4456 20.537 29.1524C21.4044 28.3867 23.1572 26.6579 23.57 26.1553C23.9289 25.7127 24.3477 25.1384 24.3477 25.0845C24.3477 25.0666 24.4135 24.9469 24.4973 24.8213C24.6169 24.6239 24.8861 23.9479 24.8861 23.8283C24.8861 23.7325 24.7186 23.8283 24.587 24.0077C23.9589 24.8572 21.7454 27.1484 20.8062 27.9141C20.5789 28.0996 20.2319 28.3807 20.0465 28.5363C18.7603 29.6191 16.2478 31.4377 13.1908 33.5015C11.4679 34.6621 9.99034 35.709 9.14086 36.361C8.26745 37.037 6.90948 38.3412 6.55653 38.8437C6.27537 39.2385 5.96429 39.8606 5.9942 39.9504C6.00617 39.9803 6.22751 39.8367 6.49073 39.6333C6.89154 39.3282 8.32727 38.2813 9.39211 37.5276C10.5766 36.6901 11.0432 36.3491 11.4859 36.032C12.6644 35.1766 13.6275 34.5065 13.6814 34.5065C13.7173 34.5065 14.6206 35.6731 15.6914 37.0909C17.8989 40.0222 21.8053 45.2088 22.3317 45.8967C22.6069 46.2497 22.7205 46.3514 22.8402 46.3633C23.3905 46.3873 33.8535 46.4112 33.9612 46.3813C34.0868 46.3514 34.5773 45.7651 36.0729 43.8448C36.384 43.444 36.9762 42.6902 37.389 42.1698C37.8018 41.6493 38.3521 40.9494 38.6153 40.6084C38.8786 40.2674 39.4588 39.5316 39.9015 38.9693C40.7091 37.9463 41.8517 36.4926 42.4739 35.6791C42.6533 35.4458 43.0721 34.9133 43.4011 34.5006C43.7302 34.0818 44.2027 33.4836 44.448 33.1605C44.6933 32.8435 44.9924 32.4666 45.1061 32.323C45.2197 32.1854 45.5188 31.8086 45.7641 31.4915C46.0094 31.1685 46.3863 30.6839 46.6076 30.4207C46.823 30.1515 47.146 29.7387 47.3255 29.5054C47.9416 28.6978 48.8988 27.4714 49.4611 26.7775C49.7902 26.3647 50.0115 26.0297 49.9995 25.9699C49.9816 25.8682 49.8799 25.7844 48.5459 24.7555C48.1211 24.4265 47.5528 23.9898 47.2836 23.7864C47.0204 23.577 46.4042 23.0984 45.9137 22.7215C45.4291 22.3447 44.795 21.8541 44.5138 21.6328C44.2327 21.4114 43.9694 21.226 43.9335 21.226C43.8977 21.226 43.7361 21.3815 43.5746 21.567Z" fill="#4D4DFF"/>
</svg>
