<?xml version="1.0" standalone="no"?>
<!DOCTYPE svg PUBLIC "-//W3C//DTD SVG 20010904//EN"
 "http://www.w3.org/TR/2001/REC-SVG-20010904/DTD/svg10.dtd">
<svg version="1.0" xmlns="http://www.w3.org/2000/svg"
 width="512.000000pt" height="512.000000pt" viewBox="0 0 512.000000 512.000000"
 preserveAspectRatio="xMidYMid meet">

<g transform="translate(0.000000,512.000000) scale(0.100000,-0.100000)"
fill="#000000" stroke="none">
<path d="M515 5094 c-251 -62 -458 -283 -504 -538 -42 -231 52 -490 232 -636
137 -112 298 -166 467 -157 181 10 316 71 446 201 130 130 194 283 196 466 2
304 -172 544 -470 652 -76 28 -279 34 -367 12z"/>
<path d="M3580 3535 c-228 -38 -450 -147 -623 -305 l-57 -52 0 121 c0 116 -1
123 -25 146 l-24 25 -524 0 -524 0 -24 -26 -24 -26 -3 -1651 c-1 -909 0 -1667
3 -1685 3 -18 15 -42 26 -53 18 -18 38 -19 567 -19 l549 0 20 22 c21 23 21 25
26 953 4 962 6 1003 47 1155 46 171 155 286 310 326 86 23 256 23 331 1 108
-32 195 -117 238 -233 53 -140 54 -166 60 -1212 l6 -974 24 -19 c22 -18 47
-19 568 -19 l544 0 24 25 25 24 0 1003 c0 952 -5 1172 -31 1358 -21 151 -65
330 -108 437 -156 392 -447 613 -892 678 -128 18 -401 18 -509 0z"/>
<path d="M122 3463 c-7 -3 -19 -18 -27 -33 -13 -25 -15 -244 -15 -1690 0
-1772 -2 -1706 45 -1724 9 -3 261 -6 559 -6 l543 0 21 23 22 23 0 1685 0 1686
-23 21 -23 22 -545 -1 c-299 0 -550 -3 -557 -6z"/>
</g>
</svg>
