<svg width="278" height="200" viewBox="0 0 278 200" fill="none" xmlns="http://www.w3.org/2000/svg">
<g clip-path="url(#clip0)">
<path d="M249.757 128.688H86.9169C86.2254 128.688 85.5623 128.962 85.0734 129.45C84.5845 129.938 84.3098 130.599 84.3098 131.289C84.3098 131.979 84.5845 132.64 85.0734 133.128C85.5623 133.616 86.2254 133.89 86.9169 133.89H91.5294V196.105C91.5294 196.795 91.804 197.456 92.2929 197.944C92.7819 198.432 93.445 198.706 94.1364 198.706C94.8278 198.706 95.491 198.432 95.9799 197.944C96.4688 197.456 96.7435 196.795 96.7435 196.105L96.7831 133.89H239.53V196.105C239.53 196.795 239.804 197.456 240.293 197.944C240.782 198.432 241.445 198.706 242.137 198.706C242.828 198.706 243.491 198.432 243.98 197.944C244.469 197.456 244.744 196.795 244.744 196.105V135.261L245.502 133.89H249.757C250.449 133.89 251.112 133.616 251.601 133.128C252.09 132.64 252.365 131.979 252.365 131.289C252.365 130.599 252.09 129.938 251.601 129.45C251.112 128.962 250.449 128.688 249.757 128.688Z" fill="#CCCCCC"/>
<path d="M177.197 130.049H127.871C126.916 130.048 126 129.669 125.325 128.996C124.649 128.322 124.269 127.408 124.268 126.456V99.3653C124.269 98.4126 124.649 97.4992 125.325 96.8255C126 96.1518 126.916 95.7728 127.871 95.7717H177.197C178.152 95.7728 179.068 96.1518 179.743 96.8255C180.418 97.4992 180.798 98.4126 180.799 99.3653V126.456C180.798 127.408 180.418 128.322 179.743 128.996C179.068 129.669 178.152 130.048 177.197 130.049Z" fill="#3F3D56"/>
<path d="M177.197 98.5376H127.871C127.651 98.5381 127.44 98.6255 127.285 98.7807C127.129 98.9359 127.041 99.1463 127.041 99.3658V126.456C127.041 126.676 127.129 126.886 127.285 127.042C127.44 127.197 127.651 127.284 127.871 127.285H177.197C177.417 127.284 177.628 127.197 177.783 127.042C177.939 126.886 178.027 126.676 178.027 126.456V99.3658C178.027 99.1463 177.939 98.9359 177.783 98.7807C177.628 98.6255 177.417 98.5381 177.197 98.5376Z" fill="#F5F5F5"/>
<path d="M156.741 117.718C156.741 117.718 150.836 116.36 147.588 118.849C144.341 121.337 151.722 126.993 151.722 126.993L156.741 117.718Z" fill="#2F2E41"/>
<path d="M152.823 115.153C155.899 115.153 158.393 112.665 158.393 109.597C158.393 106.528 155.899 104.041 152.823 104.041C149.747 104.041 147.253 106.528 147.253 109.597C147.253 112.665 149.747 115.153 152.823 115.153Z" fill="#A0616A"/>
<path d="M148.516 101.797C148.888 101.168 149.426 100.654 150.072 100.311C150.718 99.9683 151.446 99.8102 152.177 99.8543C152.941 99.9499 153.686 100.158 154.389 100.472L158.03 101.889C158.972 102.255 160.004 102.705 160.413 103.627C160.792 104.484 160.509 105.473 160.223 106.364L158.86 110.603C158.709 109.644 158.451 108.704 158.088 107.803C157.72 106.896 157.055 106.139 156.202 105.657C155.256 105.173 154.141 105.183 153.079 105.234C151.575 105.306 149.941 105.497 148.872 106.555C148.305 107.156 147.92 107.905 147.763 108.715C147.609 109.521 147.531 110.34 147.531 111.161C146.914 110.103 146.395 108.992 145.979 107.842C145.637 106.985 145.442 106.076 145.402 105.155C145.366 104.226 145.676 103.316 146.27 102.6C146.572 102.25 146.966 101.991 147.408 101.852C147.849 101.713 148.321 101.701 148.769 101.815L148.516 101.797Z" fill="#2F2E41"/>
<path d="M166.123 122.535C166.07 122.348 165.964 122.18 165.816 122.052C165.668 121.925 165.486 121.844 165.292 121.819C165.28 121.81 165.266 121.802 165.252 121.795L156.937 117.147C156.7 117.014 156.42 116.978 156.157 117.046C155.893 117.113 155.666 117.28 155.522 117.51L153.248 121.183L149.823 117.766L149.768 117.712C149.592 117.537 149.36 117.429 149.113 117.407C148.865 117.385 148.618 117.452 148.414 117.594L141.58 122.367C141.568 122.367 141.556 122.371 141.544 122.371C141.217 122.426 140.918 122.59 140.697 122.836C140.476 123.083 140.346 123.397 140.329 123.728L140.152 127.285H167.442L166.123 122.535Z" fill="#0000FF"/>
<path d="M181.354 126.732H176.089C176.089 126.585 176.03 126.445 175.926 126.341C175.822 126.237 175.682 126.179 175.535 126.179H173.872C173.725 126.179 173.584 126.237 173.48 126.341C173.376 126.445 173.318 126.585 173.318 126.732H171.655C171.655 126.585 171.597 126.445 171.493 126.341C171.389 126.237 171.248 126.179 171.101 126.179H169.438C169.291 126.179 169.15 126.237 169.046 126.341C168.942 126.445 168.884 126.585 168.884 126.732H167.221C167.221 126.585 167.163 126.445 167.059 126.341C166.955 126.237 166.814 126.179 166.667 126.179H165.004C164.857 126.179 164.716 126.237 164.612 126.341C164.508 126.445 164.45 126.585 164.45 126.732H162.787C162.787 126.585 162.729 126.445 162.625 126.341C162.521 126.237 162.38 126.179 162.233 126.179H160.57C160.423 126.179 160.282 126.237 160.179 126.341C160.075 126.445 160.016 126.585 160.016 126.732H158.353C158.353 126.585 158.295 126.445 158.191 126.341C158.087 126.237 157.946 126.179 157.799 126.179H156.137C155.99 126.179 155.849 126.237 155.745 126.341C155.641 126.445 155.582 126.585 155.582 126.732H153.92C153.92 126.585 153.861 126.445 153.757 126.341C153.653 126.237 153.512 126.179 153.365 126.179H151.703C151.556 126.179 151.415 126.237 151.311 126.341C151.207 126.445 151.149 126.585 151.149 126.732H149.486C149.486 126.585 149.427 126.445 149.324 126.341C149.22 126.237 149.079 126.179 148.932 126.179H147.269C147.122 126.179 146.981 126.237 146.877 126.341C146.773 126.445 146.715 126.585 146.715 126.732H145.052C145.052 126.585 144.994 126.445 144.89 126.341C144.786 126.237 144.645 126.179 144.498 126.179H142.835C142.688 126.179 142.547 126.237 142.443 126.341C142.339 126.445 142.281 126.585 142.281 126.732H140.618C140.618 126.585 140.56 126.445 140.456 126.341C140.352 126.237 140.211 126.179 140.064 126.179H138.401C138.254 126.179 138.113 126.237 138.009 126.341C137.905 126.445 137.847 126.585 137.847 126.732H136.184C136.184 126.585 136.126 126.445 136.022 126.341C135.918 126.237 135.777 126.179 135.63 126.179H133.968C133.821 126.179 133.68 126.237 133.576 126.341C133.472 126.445 133.413 126.585 133.413 126.732H131.751C131.751 126.585 131.692 126.445 131.588 126.341C131.484 126.237 131.343 126.179 131.196 126.179H129.534C129.387 126.179 129.246 126.237 129.142 126.341C129.038 126.445 128.979 126.585 128.979 126.732H123.714C123.274 126.733 122.852 126.908 122.54 127.219C122.229 127.53 122.054 127.951 122.054 128.391C122.054 128.83 122.229 129.252 122.54 129.563C122.852 129.874 123.274 130.049 123.714 130.049H181.354C181.795 130.049 182.218 129.874 182.53 129.563C182.841 129.252 183.017 128.831 183.017 128.391C183.017 127.951 182.841 127.529 182.53 127.218C182.218 126.907 181.795 126.732 181.354 126.732Z" fill="#3F3D56"/>
<path d="M115.143 117.1V128.113H87.4833C86.7423 128.139 86.0036 128.016 85.3114 127.75C84.6191 127.485 83.9875 127.084 83.4541 126.57C82.9207 126.056 82.4966 125.44 82.2068 124.759C81.9171 124.078 81.7678 123.346 81.7678 122.607C81.7678 121.867 81.9171 121.135 82.2068 120.454C82.4966 119.773 82.9207 119.157 83.4541 118.643C83.9875 118.13 84.6191 117.728 85.3114 117.463C86.0036 117.198 86.7423 117.074 87.4833 117.1H115.143Z" fill="#F2F2F2"/>
<path d="M115.823 128.028C115.823 128.141 115.778 128.249 115.698 128.328C115.619 128.407 115.511 128.452 115.398 128.452H86.9909C85.4481 128.452 83.9684 127.841 82.8774 126.752C81.7865 125.664 81.1736 124.188 81.1736 122.649C81.1736 121.11 81.7865 119.634 82.8774 118.546C83.9684 117.457 85.4481 116.846 86.9909 116.846H115.398C115.511 116.846 115.619 116.891 115.698 116.97C115.778 117.05 115.823 117.157 115.823 117.27C115.823 117.382 115.778 117.49 115.698 117.569C115.619 117.649 115.511 117.693 115.398 117.693H86.9909C85.6741 117.694 84.4116 118.217 83.4808 119.146C82.5501 120.076 82.0273 121.335 82.0273 122.649C82.0273 123.963 82.5501 125.223 83.4808 126.152C84.4116 127.081 85.6741 127.604 86.9909 127.605H115.398C115.511 127.605 115.619 127.65 115.698 127.729C115.778 127.808 115.823 127.916 115.823 128.028Z" fill="#0000FF"/>
<path d="M115.143 119.642H85.4197C85.4085 119.642 85.3974 119.64 85.3871 119.635C85.3767 119.631 85.3673 119.625 85.3593 119.617C85.3514 119.609 85.3451 119.6 85.3408 119.589C85.3364 119.579 85.3342 119.568 85.3342 119.557C85.3342 119.546 85.3364 119.535 85.3408 119.524C85.3451 119.514 85.3514 119.505 85.3593 119.497C85.3673 119.489 85.3767 119.483 85.3871 119.478C85.3974 119.474 85.4085 119.472 85.4197 119.472H115.143C115.166 119.472 115.187 119.481 115.203 119.497C115.219 119.513 115.228 119.535 115.228 119.557C115.228 119.579 115.219 119.601 115.203 119.617C115.187 119.632 115.166 119.641 115.143 119.642Z" fill="#CCCCCC"/>
<path d="M115.143 121.675H85.4197C85.4085 121.675 85.3974 121.673 85.3871 121.669C85.3767 121.664 85.3673 121.658 85.3593 121.65C85.3514 121.642 85.3451 121.633 85.3408 121.623C85.3364 121.612 85.3342 121.601 85.3342 121.59C85.3342 121.579 85.3364 121.568 85.3408 121.558C85.3451 121.547 85.3514 121.538 85.3593 121.53C85.3673 121.522 85.3767 121.516 85.3871 121.512C85.3974 121.507 85.4085 121.505 85.4197 121.505H115.143C115.166 121.506 115.187 121.515 115.203 121.53C115.219 121.546 115.228 121.568 115.228 121.59C115.228 121.612 115.219 121.634 115.203 121.65C115.187 121.666 115.166 121.675 115.143 121.675Z" fill="#CCCCCC"/>
<path d="M115.143 123.708H85.4197C85.4085 123.708 85.3974 123.706 85.3871 123.702C85.3767 123.698 85.3673 123.691 85.3593 123.683C85.3514 123.676 85.3451 123.666 85.3408 123.656C85.3364 123.646 85.3342 123.634 85.3342 123.623C85.3342 123.612 85.3364 123.601 85.3408 123.591C85.3451 123.58 85.3514 123.571 85.3593 123.563C85.3673 123.555 85.3767 123.549 85.3871 123.545C85.3974 123.541 85.4085 123.538 85.4197 123.539H115.143C115.166 123.539 115.187 123.548 115.203 123.564C115.219 123.579 115.228 123.601 115.228 123.623C115.228 123.646 115.219 123.667 115.203 123.683C115.187 123.699 115.166 123.708 115.143 123.708Z" fill="#CCCCCC"/>
<path d="M115.143 125.741H85.4197C85.4085 125.741 85.3974 125.739 85.3871 125.735C85.3767 125.731 85.3673 125.724 85.3593 125.717C85.3514 125.709 85.3451 125.699 85.3408 125.689C85.3364 125.679 85.3342 125.668 85.3342 125.656C85.3342 125.645 85.3364 125.634 85.3408 125.624C85.3451 125.614 85.3514 125.604 85.3593 125.596C85.3673 125.589 85.3767 125.582 85.3871 125.578C85.3974 125.574 85.4085 125.572 85.4197 125.572H115.143C115.166 125.572 115.187 125.581 115.203 125.597C115.219 125.613 115.228 125.634 115.228 125.656C115.228 125.679 115.219 125.7 115.203 125.716C115.187 125.732 115.166 125.741 115.143 125.741Z" fill="#CCCCCC"/>
<path d="M109.929 105.497V116.51H82.2692C81.5282 116.536 80.7895 116.413 80.0972 116.148C79.405 115.882 78.7734 115.481 78.24 114.967C77.7066 114.453 77.2824 113.837 76.9927 113.157C76.703 112.476 76.5537 111.744 76.5537 111.004C76.5537 110.264 76.703 109.532 76.9927 108.851C77.2824 108.17 77.7066 107.555 78.24 107.041C78.7734 106.527 79.405 106.125 80.0972 105.86C80.7895 105.595 81.5282 105.472 82.2692 105.497H109.929Z" fill="#F2F2F2"/>
<path d="M110.609 116.426C110.609 116.538 110.564 116.646 110.484 116.725C110.405 116.804 110.297 116.849 110.184 116.849H81.7768C81.0128 116.849 80.2564 116.699 79.5506 116.407C78.8448 116.116 78.2035 115.688 77.6633 115.15C77.1231 114.611 76.6946 113.971 76.4023 113.267C76.1099 112.563 75.9595 111.808 75.9595 111.046C75.9595 110.284 76.1099 109.53 76.4023 108.825C76.6946 108.121 77.1231 107.482 77.6633 106.943C78.2035 106.404 78.8448 105.977 79.5506 105.685C80.2564 105.393 81.0128 105.243 81.7768 105.243H110.184C110.297 105.243 110.405 105.288 110.484 105.367C110.564 105.447 110.609 105.554 110.609 105.667C110.609 105.779 110.564 105.887 110.484 105.966C110.405 106.046 110.297 106.09 110.184 106.09H81.7768C80.4599 106.091 79.1974 106.614 78.2667 107.543C77.336 108.473 76.8132 109.733 76.8132 111.046C76.8132 112.36 77.336 113.62 78.2667 114.549C79.1974 115.478 80.4599 116.001 81.7768 116.002H110.184C110.297 116.002 110.405 116.047 110.484 116.126C110.564 116.206 110.609 116.313 110.609 116.426Z" fill="#3F3D56"/>
<path d="M109.929 108.039H80.2056C80.1944 108.039 80.1833 108.037 80.1729 108.032C80.1626 108.028 80.1531 108.022 80.1452 108.014C80.1372 108.006 80.1309 107.997 80.1266 107.987C80.1223 107.976 80.1201 107.965 80.1201 107.954C80.1201 107.943 80.1223 107.932 80.1266 107.921C80.1309 107.911 80.1372 107.902 80.1452 107.894C80.1531 107.886 80.1626 107.88 80.1729 107.876C80.1833 107.871 80.1944 107.869 80.2056 107.869H109.929C109.952 107.869 109.973 107.878 109.989 107.894C110.005 107.91 110.013 107.932 110.013 107.954C110.013 107.976 110.005 107.998 109.989 108.014C109.973 108.03 109.952 108.039 109.929 108.039Z" fill="#CCCCCC"/>
<path d="M109.929 110.072H80.2056C80.1944 110.072 80.1833 110.07 80.1729 110.066C80.1626 110.062 80.1531 110.055 80.1452 110.047C80.1372 110.04 80.1309 110.03 80.1266 110.02C80.1223 110.01 80.1201 109.998 80.1201 109.987C80.1201 109.976 80.1223 109.965 80.1266 109.955C80.1309 109.944 80.1372 109.935 80.1452 109.927C80.1531 109.919 80.1626 109.913 80.1729 109.909C80.1833 109.905 80.1944 109.903 80.2056 109.903H109.929C109.952 109.903 109.973 109.912 109.989 109.928C110.005 109.943 110.013 109.965 110.013 109.987C110.013 110.01 110.005 110.031 109.989 110.047C109.973 110.063 109.952 110.072 109.929 110.072Z" fill="#CCCCCC"/>
<path d="M109.929 112.105H80.2056C80.1944 112.105 80.1833 112.103 80.1729 112.099C80.1626 112.095 80.1531 112.088 80.1452 112.08C80.1372 112.073 80.1309 112.063 80.1266 112.053C80.1223 112.043 80.1201 112.032 80.1201 112.02C80.1201 112.009 80.1223 111.998 80.1266 111.988C80.1309 111.978 80.1372 111.968 80.1452 111.96C80.1531 111.952 80.1626 111.946 80.1729 111.942C80.1833 111.938 80.1944 111.936 80.2056 111.936H109.929C109.952 111.936 109.973 111.945 109.989 111.961C110.005 111.977 110.013 111.998 110.013 112.02C110.013 112.043 110.005 112.064 109.989 112.08C109.973 112.096 109.952 112.105 109.929 112.105Z" fill="#CCCCCC"/>
<path d="M109.929 114.138H80.2056C80.1944 114.138 80.1833 114.136 80.1729 114.132C80.1626 114.128 80.1531 114.122 80.1452 114.114C80.1372 114.106 80.1309 114.096 80.1266 114.086C80.1223 114.076 80.1201 114.065 80.1201 114.054C80.1201 114.042 80.1223 114.031 80.1266 114.021C80.1309 114.011 80.1372 114.001 80.1452 113.993C80.1531 113.986 80.1626 113.979 80.1729 113.975C80.1833 113.971 80.1944 113.969 80.2056 113.969H109.929C109.952 113.969 109.973 113.978 109.989 113.994C110.005 114.01 110.013 114.031 110.013 114.054C110.013 114.076 110.005 114.097 109.989 114.113C109.973 114.129 109.952 114.138 109.929 114.138Z" fill="#CCCCCC"/>
<path d="M142.106 167.258V157.656C142.106 157.232 141.937 156.825 141.636 156.524C141.335 156.224 140.927 156.056 140.502 156.056H104.003C103.577 156.056 103.169 156.224 102.868 156.524C102.567 156.825 102.398 157.232 102.398 157.656V167.258H142.106Z" fill="#CCCCCC"/>
<path d="M142.106 170.859H102.398V183.262H142.106V170.859Z" fill="#CCCCCC"/>
<path d="M102.398 186.863V196.466C102.398 196.89 102.567 197.297 102.868 197.597C103.169 197.897 103.577 198.066 104.003 198.066H140.502C140.927 198.066 141.335 197.897 141.636 197.597C141.937 197.297 142.106 196.89 142.106 196.466V186.863H102.398Z" fill="#CCCCCC"/>
<path d="M122.051 163.258C122.716 163.258 123.255 162.72 123.255 162.057C123.255 161.394 122.716 160.857 122.051 160.857C121.387 160.857 120.848 161.394 120.848 162.057C120.848 162.72 121.387 163.258 122.051 163.258Z" fill="#F5F5F5"/>
<path d="M122.051 179.261C122.716 179.261 123.255 178.724 123.255 178.061C123.255 177.398 122.716 176.861 122.051 176.861C121.387 176.861 120.848 177.398 120.848 178.061C120.848 178.724 121.387 179.261 122.051 179.261Z" fill="#F5F5F5"/>
<path d="M122.116 194.926C122.781 194.926 123.319 194.389 123.319 193.726C123.319 193.063 122.781 192.526 122.116 192.526C121.452 192.526 120.913 193.063 120.913 193.726C120.913 194.389 121.452 194.926 122.116 194.926Z" fill="#F5F5F5"/>
<path d="M137.604 145.107V156.12H109.944C109.203 156.146 108.465 156.022 107.772 155.757C107.08 155.492 106.448 155.091 105.915 154.577C105.382 154.063 104.958 153.447 104.668 152.766C104.378 152.085 104.229 151.353 104.229 150.614C104.229 149.874 104.378 149.142 104.668 148.461C104.958 147.78 105.382 147.164 105.915 146.65C106.448 146.137 107.08 145.735 107.772 145.47C108.465 145.205 109.203 145.081 109.944 145.107H137.604Z" fill="#F2F2F2"/>
<path d="M138.283 156.035C138.283 156.148 138.239 156.255 138.159 156.335C138.079 156.414 137.971 156.459 137.859 156.459H109.452C108.687 156.46 107.93 156.31 107.224 156.019C106.518 155.727 105.876 155.3 105.335 154.761C104.794 154.222 104.365 153.582 104.073 152.878C103.78 152.173 103.629 151.418 103.629 150.656C103.629 149.894 103.78 149.139 104.073 148.434C104.365 147.73 104.794 147.09 105.335 146.551C105.876 146.012 106.518 145.585 107.224 145.293C107.93 145.002 108.687 144.852 109.452 144.853H137.859C137.971 144.853 138.079 144.898 138.159 144.977C138.239 145.057 138.283 145.164 138.283 145.277C138.283 145.389 138.239 145.497 138.159 145.576C138.079 145.656 137.971 145.7 137.859 145.7H109.452C108.135 145.701 106.872 146.224 105.941 147.153C105.011 148.083 104.488 149.342 104.488 150.656C104.488 151.97 105.011 153.229 105.941 154.159C106.872 155.088 108.135 155.611 109.452 155.612H137.859C137.971 155.612 138.079 155.657 138.159 155.736C138.239 155.815 138.283 155.923 138.283 156.035Z" fill="#3F3D56"/>
<path d="M137.604 147.649H107.88C107.869 147.649 107.858 147.646 107.848 147.642C107.837 147.638 107.828 147.632 107.82 147.624C107.812 147.616 107.806 147.607 107.801 147.596C107.797 147.586 107.795 147.575 107.795 147.564C107.795 147.553 107.797 147.542 107.801 147.531C107.806 147.521 107.812 147.512 107.82 147.504C107.828 147.496 107.837 147.49 107.848 147.485C107.858 147.481 107.869 147.479 107.88 147.479H137.604C137.626 147.479 137.648 147.488 137.664 147.504C137.679 147.52 137.688 147.541 137.688 147.564C137.688 147.586 137.679 147.608 137.664 147.624C137.648 147.639 137.626 147.648 137.604 147.649Z" fill="#CCCCCC"/>
<path d="M137.604 149.682H107.88C107.869 149.682 107.858 149.68 107.848 149.675C107.837 149.671 107.828 149.665 107.82 149.657C107.812 149.649 107.806 149.64 107.801 149.63C107.797 149.619 107.795 149.608 107.795 149.597C107.795 149.586 107.797 149.575 107.801 149.564C107.806 149.554 107.812 149.545 107.82 149.537C107.828 149.529 107.837 149.523 107.848 149.519C107.858 149.514 107.869 149.512 107.88 149.512H137.604C137.626 149.512 137.648 149.521 137.664 149.537C137.679 149.553 137.688 149.575 137.688 149.597C137.688 149.619 137.679 149.641 137.664 149.657C137.648 149.673 137.626 149.682 137.604 149.682Z" fill="#CCCCCC"/>
<path d="M137.604 151.715H107.88C107.869 151.715 107.858 151.713 107.848 151.709C107.837 151.704 107.828 151.698 107.82 151.69C107.812 151.682 107.806 151.673 107.801 151.663C107.797 151.652 107.795 151.641 107.795 151.63C107.795 151.619 107.797 151.608 107.801 151.598C107.806 151.587 107.812 151.578 107.82 151.57C107.828 151.562 107.837 151.556 107.848 151.552C107.858 151.547 107.869 151.545 107.88 151.545H137.604C137.626 151.546 137.648 151.555 137.664 151.57C137.679 151.586 137.688 151.608 137.688 151.63C137.688 151.652 137.679 151.674 137.664 151.69C137.648 151.706 137.626 151.715 137.604 151.715Z" fill="#CCCCCC"/>
<path d="M137.604 153.748H107.88C107.869 153.748 107.858 153.746 107.848 153.742C107.837 153.738 107.828 153.731 107.82 153.723C107.812 153.716 107.806 153.706 107.801 153.696C107.797 153.686 107.795 153.675 107.795 153.663C107.795 153.652 107.797 153.641 107.801 153.631C107.806 153.62 107.812 153.611 107.82 153.603C107.828 153.595 107.837 153.589 107.848 153.585C107.858 153.581 107.869 153.579 107.88 153.579H137.604C137.626 153.579 137.648 153.588 137.664 153.604C137.679 153.62 137.688 153.641 137.688 153.663C137.688 153.686 137.679 153.707 137.664 153.723C137.648 153.739 137.626 153.748 137.604 153.748Z" fill="#CCCCCC"/>
<path d="M100.316 73.2266V3.00932C100.317 2.21148 100.635 1.44657 101.2 0.882414C101.766 0.318254 102.533 0.000907519 103.332 0H158.974C159.774 0.000912803 160.541 0.318262 161.107 0.88242C161.672 1.44658 161.99 2.21148 161.991 3.00932V73.2266C161.99 74.0245 161.672 74.7894 161.107 75.3535C160.541 75.9177 159.774 76.235 158.974 76.2359H103.332C102.533 76.235 101.766 75.9177 101.2 75.3535C100.635 74.7894 100.317 74.0245 100.316 73.2266ZM103.332 0.668738C102.71 0.669433 102.114 0.916253 101.674 1.35505C101.234 1.79384 100.987 2.38877 100.986 3.00932V73.2266C100.987 73.8472 101.234 74.4421 101.674 74.8809C102.114 75.3197 102.71 75.5665 103.332 75.5672H158.974C159.596 75.5665 160.193 75.3197 160.633 74.8809C161.073 74.4421 161.32 73.8472 161.321 73.2266V3.00932C161.32 2.38877 161.073 1.79384 160.633 1.35505C160.193 0.916254 159.596 0.669434 158.974 0.668738H103.332Z" fill="#E6E6E6"/>
<path d="M134.274 32.2471V17.8292C134.274 17.4303 134.433 17.0479 134.716 16.7658C134.999 16.4837 135.382 16.325 135.782 16.3246H148.03C148.43 16.325 148.813 16.4837 149.096 16.7658C149.379 17.0479 149.538 17.4303 149.538 17.8292V32.2471C149.538 32.646 149.379 33.0285 149.096 33.3105C148.813 33.5926 148.43 33.7513 148.03 33.7517H135.782C135.382 33.7513 134.999 33.5926 134.716 33.3105C134.433 33.0285 134.274 32.646 134.274 32.2471Z" fill="#0000FF"/>
<path d="M110.475 38.9344V24.5166C110.475 24.1177 110.634 23.7352 110.917 23.4531C111.2 23.1711 111.583 23.0124 111.983 23.012H124.231C124.631 23.0124 125.014 23.1711 125.297 23.4531C125.58 23.7352 125.739 24.1177 125.74 24.5166V38.9344C125.739 39.3334 125.58 39.7158 125.297 39.9979C125.014 40.28 124.631 40.4386 124.231 40.4391H111.983C111.583 40.4386 111.2 40.28 110.917 39.9979C110.634 39.7158 110.475 39.3333 110.475 38.9344Z" fill="#CCCCCC"/>
<path d="M129.581 59.3308V44.913C129.581 44.5141 129.74 44.1316 130.023 43.8495C130.306 43.5674 130.689 43.4088 131.089 43.4083H143.337C143.737 43.4088 144.12 43.5674 144.403 43.8495C144.686 44.1316 144.845 44.5141 144.845 44.913V59.3308C144.845 59.7297 144.686 60.1122 144.403 60.3943C144.12 60.6764 143.737 60.835 143.337 60.8355H131.089C130.689 60.835 130.306 60.6764 130.023 60.3943C129.74 60.1122 129.581 59.7297 129.581 59.3308Z" fill="#FF6584"/>
<path d="M202.774 125.248H190.172C190.052 125.248 189.934 125.275 189.827 125.328L186.646 126.917C186.541 126.961 186.452 127.035 186.389 127.13C186.327 127.224 186.293 127.335 186.293 127.449C186.293 127.562 186.327 127.673 186.389 127.768C186.452 127.862 186.541 127.936 186.646 127.981L189.827 129.569C189.934 129.622 190.052 129.649 190.172 129.649H202.774C202.947 129.659 203.118 129.601 203.249 129.486C203.379 129.372 203.459 129.21 203.472 129.037V125.86C203.459 125.687 203.379 125.526 203.249 125.411C203.118 125.297 202.947 125.238 202.774 125.248Z" fill="#3F3D56"/>
<path d="M203.472 125.86V129.037C203.46 129.21 203.379 129.371 203.249 129.486C203.118 129.601 202.948 129.659 202.774 129.649H200.263V125.248H202.774C202.948 125.238 203.118 125.297 203.249 125.411C203.379 125.526 203.46 125.687 203.472 125.86Z" fill="#0000FF"/>
<path d="M202.679 101.482C203.25 101.236 203.866 101.114 204.488 101.122C205.11 101.131 205.723 101.27 206.286 101.531C206.85 101.793 207.352 102.17 207.76 102.638C208.168 103.106 208.471 103.655 208.652 104.249C208.708 104.437 208.751 104.629 208.78 104.823L226.403 113.54L230.481 110.844L235.556 116.672L229.328 121.717C228.58 122.319 227.656 122.664 226.695 122.701C225.734 122.738 224.787 122.465 223.993 121.922L206.113 109.588C205.98 109.644 205.845 109.694 205.706 109.736C205.111 109.915 204.485 109.968 203.868 109.889C203.251 109.81 202.658 109.602 202.128 109.279C201.597 108.955 201.141 108.524 200.789 108.012C200.438 107.501 200.198 106.921 200.087 106.311C200.054 106.134 200.032 105.955 200.022 105.775C199.972 104.874 200.2 103.98 200.675 103.213C201.15 102.445 201.85 101.841 202.679 101.482Z" fill="#FFD5A7"/>
<path d="M240.111 157H220.855C220.855 157.552 201.01 158 201.01 158C200.698 158.234 200.414 158.503 200.163 158.8C199.41 159.697 198.998 160.831 199 162.001V162.801C199.001 164.128 199.529 165.399 200.469 166.337C201.409 167.275 202.684 167.802 204.014 167.803H240.111C241.441 167.802 242.715 167.274 243.655 166.337C244.595 165.399 245.124 164.127 245.125 162.801V162.001C245.123 160.675 244.594 159.404 243.654 158.467C242.714 157.529 241.44 157.002 240.111 157Z" fill="#3F3D56"/>
<path d="M219.165 201.212H224.379V167.604H219.165V201.212Z" fill="#3F3D56"/>
<path d="M204.325 201.03C204.325 201.592 212.226 201.247 221.973 201.247C231.719 201.247 239.62 201.592 239.62 201.03C239.62 200.468 231.719 196.011 221.973 196.011C212.226 196.011 204.325 200.468 204.325 201.03Z" fill="#3F3D56"/>
<path d="M208.305 195.245L203.388 195.245L201.048 182.523L208.306 182.523L208.305 195.245Z" fill="#FFD5A7"/>
<path d="M209.559 200L193.704 199.999V199.799C193.704 198.991 193.863 198.19 194.174 197.443C194.484 196.697 194.938 196.018 195.511 195.446C196.084 194.875 196.765 194.421 197.514 194.112C198.262 193.802 199.065 193.643 199.875 193.643H199.876L209.559 193.644L209.559 200Z" fill="#2F2E41"/>
<path d="M200.951 187.356L191.148 165.428C190.329 163.58 190.239 161.492 190.894 159.58C191.55 157.668 192.903 156.073 194.685 155.112L215.948 143.738L225.65 142.914L234.6 142.103L234.665 142.212C234.747 142.351 236.672 145.667 235.371 149.302C234.384 152.06 231.818 154.214 227.743 155.705C218.231 159.184 207.244 162.157 202.961 163.274C202.772 163.322 202.595 163.41 202.442 163.531C202.289 163.652 202.164 163.805 202.074 163.978C201.985 164.149 201.931 164.337 201.918 164.53C201.904 164.722 201.931 164.916 201.996 165.098L211.103 185.509C211.198 185.767 211.232 186.045 211.203 186.319C211.174 186.593 211.082 186.857 210.934 187.09C210.787 187.323 210.587 187.519 210.352 187.663C210.116 187.807 209.85 187.895 209.575 187.921L202.77 188.415C202.712 188.421 202.655 188.423 202.597 188.423C202.249 188.423 201.908 188.322 201.616 188.133C201.323 187.944 201.092 187.674 200.951 187.356Z" fill="#2F2E41"/>
<path d="M210.711 195.245L205.794 195.245L203.455 182.523L210.712 182.523L210.711 195.245Z" fill="#FFD5A7"/>
<path d="M211.965 200L196.11 199.999V199.799C196.11 198.991 196.27 198.19 196.58 197.443C196.89 196.697 197.345 196.018 197.918 195.446C198.491 194.875 199.171 194.421 199.92 194.112C200.669 193.802 201.471 193.643 202.282 193.643H202.282L211.966 193.644L211.965 200Z" fill="#2F2E41"/>
<path d="M203.758 188.557L193.955 166.628C193.137 164.78 193.046 162.692 193.702 160.78C194.357 158.868 195.711 157.273 197.492 156.312L218.755 144.938L228.458 144.115L237.408 143.303L237.473 143.412C237.555 143.551 239.479 146.867 238.179 150.503C237.192 153.26 234.625 155.414 230.55 156.905C221.039 160.384 210.051 163.357 205.769 164.474C205.58 164.522 205.403 164.61 205.25 164.731C205.097 164.853 204.972 165.005 204.882 165.178C204.792 165.349 204.739 165.537 204.725 165.73C204.712 165.923 204.738 166.116 204.803 166.298L213.911 186.709C214.006 186.968 214.04 187.245 214.011 187.519C213.981 187.793 213.889 188.057 213.742 188.29C213.594 188.523 213.395 188.719 213.159 188.863C212.924 189.008 212.658 189.096 212.383 189.121L205.578 189.615C205.52 189.621 205.462 189.624 205.405 189.624C205.057 189.624 204.716 189.523 204.423 189.333C204.131 189.144 203.9 188.874 203.758 188.557Z" fill="#2F2E41"/>
<path d="M198.872 121.568C194.753 116.102 191.496 110.039 189.216 103.591C189.084 103.205 189.093 102.785 189.242 102.405C189.391 102.026 189.671 101.712 190.031 101.518L204.127 93.9838C204.355 93.861 204.608 93.7917 204.867 93.7812C205.126 93.7707 205.384 93.8193 205.621 93.9233C205.863 94.028 206.077 94.1864 206.248 94.3864C206.42 94.5863 206.543 94.8226 206.608 95.0772C208.249 101.291 211.333 107.033 215.611 111.838C215.787 112.033 215.916 112.266 215.988 112.519C216.06 112.772 216.074 113.038 216.027 113.297C215.983 113.551 215.88 113.792 215.728 114.002C215.576 114.211 215.378 114.383 215.149 114.504L201.053 122.039C200.692 122.23 200.275 122.288 199.876 122.202C199.477 122.116 199.121 121.891 198.872 121.568Z" fill="#CCCCCC"/>
<path d="M199.834 120.847C199.91 120.941 200.016 121.006 200.135 121.031C200.254 121.055 200.377 121.037 200.484 120.981L214.581 113.446C214.649 113.41 214.708 113.359 214.754 113.297C214.799 113.235 214.83 113.163 214.842 113.087C214.857 113.007 214.853 112.924 214.83 112.846C214.808 112.768 214.767 112.696 214.712 112.636C210.308 107.69 207.133 101.779 205.444 95.3815C205.425 95.3025 205.387 95.229 205.334 95.1669C205.282 95.1048 205.215 95.0557 205.14 95.0235C205.07 94.992 204.993 94.9772 204.915 94.9804C204.838 94.9836 204.763 95.0046 204.695 95.0418L190.599 102.576C190.492 102.634 190.409 102.727 190.363 102.839C190.318 102.951 190.313 103.076 190.35 103.191C192.59 109.525 195.788 115.479 199.834 120.847Z" fill="#F5F5F5"/>
<path d="M245.702 119.558L234.662 123.743L231.967 116.274C231.609 115.282 231.614 114.196 231.981 113.208C232.348 112.22 233.054 111.393 233.973 110.873C234.903 110.347 235.991 110.171 237.04 110.375C238.089 110.579 239.03 111.151 239.693 111.987L245.702 119.558Z" fill="#0000FF"/>
<path d="M217.622 149.149C217.39 148.985 217.195 148.774 217.051 148.529C216.907 148.284 216.817 148.012 216.786 147.729C215.372 134.562 216.357 124.258 219.797 116.228C220.403 114.843 221.315 113.612 222.466 112.63C223.617 111.647 224.976 110.938 226.442 110.554L235.365 110.105L235.412 110.127C237.425 111.111 239.068 112.716 240.095 114.705C241.122 116.693 241.48 118.958 241.115 121.165C238.245 128.712 235.841 136.57 237.674 142.909C237.751 143.174 237.773 143.452 237.74 143.726C237.707 144 237.618 144.264 237.48 144.503C237.346 144.734 237.166 144.935 236.951 145.094C236.736 145.253 236.491 145.366 236.23 145.427L219.233 149.46C218.958 149.526 218.672 149.532 218.394 149.478C218.116 149.424 217.853 149.312 217.622 149.149Z" fill="#0000FF"/>
<path d="M232.387 106.78C237.828 106.78 242.238 102.38 242.238 96.9532C242.238 91.526 237.828 87.1263 232.387 87.1263C226.947 87.1263 222.536 91.526 222.536 96.9532C222.536 102.38 226.947 106.78 232.387 106.78Z" fill="#FFD5A7"/>
<path d="M205.052 104.736L197.375 108.117C197.083 108.245 196.752 108.253 196.454 108.138C196.157 108.023 195.917 107.795 195.788 107.504L195.598 107.075C195.47 106.783 195.462 106.453 195.577 106.156C195.693 105.86 195.921 105.621 196.213 105.492L203.89 102.111C204.182 101.983 204.513 101.975 204.811 102.09C205.108 102.205 205.348 102.433 205.477 102.724L205.667 103.154C205.796 103.445 205.803 103.775 205.688 104.072C205.572 104.369 205.344 104.608 205.052 104.736Z" fill="#CCCCCC"/>
<path d="M207.86 109.938L200.182 113.318C199.89 113.446 199.559 113.454 199.262 113.339C198.964 113.224 198.725 112.996 198.596 112.705L198.406 112.276C198.277 111.985 198.27 111.654 198.385 111.358C198.5 111.061 198.729 110.822 199.021 110.693L206.698 107.312C206.99 107.184 207.321 107.177 207.619 107.292C207.916 107.407 208.156 107.635 208.285 107.926L208.475 108.355C208.603 108.646 208.611 108.976 208.495 109.273C208.38 109.57 208.151 109.809 207.86 109.938Z" fill="#CCCCCC"/>
<path d="M213.78 130.253L196.664 116.784C196.528 116.832 196.389 116.872 196.249 116.906C195.645 117.047 195.018 117.06 194.408 116.943C193.799 116.826 193.221 116.583 192.712 116.229C192.2 115.875 191.769 115.416 191.449 114.882C191.129 114.349 190.927 113.753 190.857 113.135C190.742 112.148 190.965 111.15 191.49 110.305C192.015 109.46 192.81 108.816 193.748 108.479C194.333 108.269 194.956 108.186 195.576 108.233C196.196 108.281 196.799 108.458 197.345 108.754C197.891 109.05 198.369 109.458 198.746 109.951C199.123 110.444 199.392 111.011 199.534 111.614C199.578 111.806 199.609 112 199.626 112.195L216.665 122.001L220.905 119.566L225.602 125.7L219.018 130.381C218.248 130.924 217.322 131.205 216.378 131.182C215.435 131.159 214.524 130.834 213.78 130.253Z" fill="#FFD5A7"/>
<path d="M227.69 127.61L217.925 120.986L222.514 114.501C223.124 113.64 224.018 113.022 225.041 112.756C226.063 112.489 227.147 112.592 228.101 113.045C229.066 113.504 229.834 114.292 230.268 115.266C230.701 116.241 230.771 117.338 230.465 118.359L227.69 127.61Z" fill="#0000FF"/>
<path d="M58.3629 146.192C55.8245 147.082 53.0991 147.305 50.4492 146.84C47.7993 146.374 45.3143 145.236 43.2336 143.534C37.9344 139.097 36.273 131.787 34.9211 125.019C33.5883 118.346 32.2554 111.673 30.9226 105L39.2939 110.75C45.3141 114.885 51.4698 119.153 55.6382 125.142C59.8065 131.131 61.626 139.308 58.2768 145.788" fill="#E6E6E6"/>
<path d="M57.6473 170.43C58.4946 164.273 59.3659 158.038 58.7715 151.815C58.2437 146.289 56.5536 140.891 53.1127 136.466C51.2863 134.121 49.0639 132.112 46.5454 130.529C45.8887 130.116 45.2842 131.154 45.9381 131.566C50.2958 134.313 53.6663 138.37 55.5637 143.151C57.6593 148.468 57.9958 154.264 57.6347 159.913C57.4163 163.328 56.9535 166.722 56.4871 170.111C56.4503 170.264 56.4732 170.425 56.5512 170.562C56.6292 170.699 56.7565 170.802 56.9073 170.849C57.0611 170.89 57.2251 170.869 57.3636 170.791C57.5022 170.712 57.6041 170.583 57.6473 170.43H57.6473Z" fill="#F2F2F2"/>
<path d="M49.4866 159.536C48.3979 161.186 46.9014 162.529 45.1413 163.436C43.3813 164.342 41.4169 164.78 39.4375 164.709C34.3505 164.469 30.1095 160.927 26.2919 157.564L15 147.619L22.4733 147.262C27.8477 147.006 33.3608 146.766 38.4797 148.42C43.5986 150.073 48.3195 154.052 49.2556 159.337" fill="#E6E6E6"/>
<path d="M60.0419 173.969C55.9637 166.771 51.2335 158.771 42.7813 156.214C40.4311 155.505 37.9669 155.251 35.5212 155.466C34.7504 155.532 34.9429 156.717 35.7123 156.651C39.8118 156.312 43.9034 157.392 47.2982 159.709C50.565 161.927 53.1086 165.011 55.2614 168.281C56.5801 170.284 57.7613 172.372 58.9427 174.458C59.3203 175.124 60.4238 174.643 60.0419 173.969Z" fill="#F2F2F2"/>
<path d="M66.5761 181.545C66.4387 179.957 65.8671 178.437 64.9234 177.15C63.9798 175.864 62.7004 174.86 61.2245 174.249V170.088H54.2276V174.38C52.8244 175.021 51.6168 176.023 50.7278 177.281C49.8389 178.54 49.3005 180.011 49.1675 181.545L47.5222 200.624H68.2214L66.5761 181.545Z" fill="#F2F2F2"/>
<path d="M221.449 95.4392C221.449 95.4392 227.555 89.7685 229.413 92.1988C231.271 94.6291 231.802 95.1691 232.864 95.1691C233.926 95.1691 236.58 98.1395 236.58 98.1395C236.58 98.1395 237.908 95.4392 239.501 97.5994C241.093 99.7596 241.359 103 241.359 103C241.359 103 247.199 89.2285 236.846 86.5282C226.493 83.8279 219.06 92.1988 221.449 95.4392Z" fill="#2F2E41"/>
</g>
<defs>
<clipPath id="clip0">
<rect width="277.551" height="200" fill="white"/>
</clipPath>
</defs>
</svg>
